<mxfile host="app.diagrams.net" modified="2023-05-31T17:12:00.769Z" agent="Mozilla/5.0 (Windows NT 10.0; Win64; x64) AppleWebKit/537.36 (KHTML, like Gecko) Chrome/113.0.0.0 Safari/537.36" etag="dd-TR6c4-z3YjDhVVSAN" version="21.3.6" type="github">
  <diagram name="Page-1" id="VhnvehwoDPCbiIrcnvag">
    <mxGraphModel dx="1813" dy="917" grid="1" gridSize="10" guides="1" tooltips="1" connect="1" arrows="1" fold="1" page="1" pageScale="1" pageWidth="827" pageHeight="1169" math="0" shadow="0">
      <root>
        <mxCell id="0" />
        <mxCell id="1" parent="0" />
        <mxCell id="76U49vm6gXJ6I5cItMZf-55" value="CHECKLIST" style="swimlane;whiteSpace=wrap;html=1;fillColor=#18141D;movable=0;resizable=0;rotatable=0;deletable=0;editable=0;locked=1;connectable=0;" parent="1" vertex="1">
          <mxGeometry x="430" y="80" width="200" height="160" as="geometry">
            <mxRectangle x="560" y="80" width="110" height="30" as="alternateBounds" />
          </mxGeometry>
        </mxCell>
        <mxCell id="76U49vm6gXJ6I5cItMZf-64" value="" style="rounded=0;whiteSpace=wrap;html=1;movable=0;resizable=0;rotatable=0;deletable=0;editable=0;locked=1;connectable=0;" parent="76U49vm6gXJ6I5cItMZf-55" vertex="1">
          <mxGeometry y="20" width="200" height="140" as="geometry" />
        </mxCell>
        <mxCell id="76U49vm6gXJ6I5cItMZf-49" value="&lt;ol&gt;&lt;li&gt;&lt;font style=&quot;font-size: 10px;&quot;&gt;Has page been linked &amp;amp; referenced?&amp;nbsp;&lt;/font&gt;&lt;/li&gt;&lt;li&gt;&lt;span style=&quot;font-size: 10px;&quot;&gt;Are components import/exporting?&lt;/span&gt;&lt;/li&gt;&lt;li&gt;&lt;span style=&quot;font-size: 10px;&quot;&gt;Could this be a util or component?&lt;/span&gt;&lt;/li&gt;&lt;li&gt;&lt;span style=&quot;font-size: 10px;&quot;&gt;Does this need to be in .env?&lt;/span&gt;&lt;/li&gt;&lt;/ol&gt;" style="text;html=1;align=left;verticalAlign=middle;resizable=0;points=[];autosize=1;strokeColor=none;fillColor=none;" parent="76U49vm6gXJ6I5cItMZf-55" vertex="1">
          <mxGeometry x="-15" y="20" width="230" height="100" as="geometry" />
        </mxCell>
        <mxCell id="76U49vm6gXJ6I5cItMZf-57" value="BRIEF" style="swimlane;horizontal=0;whiteSpace=wrap;html=1;movable=0;resizable=0;rotatable=0;deletable=0;editable=0;locked=1;connectable=0;" parent="1" vertex="1">
          <mxGeometry x="60" y="80" width="350" height="160" as="geometry">
            <mxRectangle x="60" y="80" width="40" height="70" as="alternateBounds" />
          </mxGeometry>
        </mxCell>
        <mxCell id="JUWfAFHcYzTZ3b7j192V-1" value="" style="shape=image;verticalLabelPosition=bottom;labelBackgroundColor=default;verticalAlign=top;aspect=fixed;imageAspect=0;image=data:image/png,iVBORw0KGgoAAAANSUhEUgAAAdoAAADhCAYAAABvLnR1AAAAAXNSR0IArs4c6QAAAARnQU1BAACxjwv8YQUAAAAJcEhZcwAADsMAAA7DAcdvqGQAAFUwSURBVHhe7Z1/rF1Hde8373HjksSJcWnVRHZtGsU1aQuNclue+SMhoNLXVE0jxUjFgO0q8E/Rq0z75Ei1qliqXLWoMVafwj+AGrsU/sCRWlcvfxSHvFIJS5WjQFolIWB+1MFuAZtLahvnR8XLZ3y/h+Xx3jOzz977nHPvXR9py75nnz17Zs2atWbW3mfWa2697X/8qHIcx3EcZxD+2+K/juM4juMMgDtax3EcxxkQd7SO4ziOMyDuaB3HcRxnQNzROo7jOM6AuKN1HMdxnAFJ/rznlVdeqX544Vz18ssvVz/6kf8KyHEcx3HgNa95TTU3N1e97uprq9e+9rWLn9bT6Ghxsi/84PvVqlU/Ub321cIo1HEcx3GcKiw+X3l1Efriixer665/fdLZNoaOWcniZOeuusqdrOM4juMYwor2Vf+In8Rfpmh0tISLWck6juM4jlMPfhJ/maLR0bIs9pWs4ziO4zSDn8y9w+RvHTuO4zjOgLijdRzHcZwBcUfrOI7jOAPijtZxHMdxBsQdreM4juMMiDtax3EcxxmQJelof/nWX64ePvhw9Vu/9VuLnywPlkK79n90f/XZw5+9oo58/rd/97fh+KM9f7T46SVo16c/8+lwru5aZ7b53d/93erjH/949bM/+7OLnzhDwdjROGLMMHaWCugHeoK+WNSm+POVRGdHi9HEePpALAenFDujvhiy7BR/8OE/qO757Xuqr3/964uf/JgvPfmlatt7tlV79+6tzp8/v/jpysCd1PIBW8dEeCjnR/m/+Iu/WH3yE58MY4kxw9hxlj6dHe0vvfmXqqeffrp68aUXq7e85S2LnzrLFRzqu7e+u/r7v//7xU8cx+mDN7zhDdX5c+erL3/5y4ufLA/+dN+fhonDX/3VXy1+svJoTCpw5nvfqVZfd/3iX/UwS//jP/7j6otf/GJ1w403hM8Qag5mbvduvbc6cODAZTM2Zv9ve9vbqj/5kz8Jf1P2T/30T4X/s1LCyAMzyl27dlVPPfVUtWXLlpBB4bvf+W647t/+7d/Cd3Kw6vvVX/3V8H+2zzp08FBwHrRp9/27qyeOP1H92rt+rbr66qurCxcuVB/5yEdCXakjk4vvfe97o+v/+Z//uajd9p4Wta2kXU31zpWdoqQ/mERt37E91MnKI4YVNbKpk4fa98jhR1o5aq7bvXt36Ath2x6ft/2h1T1G7Od+7ufC///ub/9uNOilw3V6ZvWbPud6e19ARr99z2+H/4PKRqaSl8XKLlXvHOqbo0ePVlvfvTXcp67uapfVoxIdjvXJXh/X257juuuuuy7cH44fP17dfvvtRXqYG3sl/RHXW/1BnT/0ex+qzpw9U23evDk4sxtvuLFa8/o14Xr+bro3xPoHpfcuhevfuPGNl413kSpbYw70nZJ7S95nzpwJ45s+AuRqr7f3jsd+3di0Mte5WFbClt30naXAf77wg+on3/DTi39dSacVLZ0zd9Vc9eSXnqxOnzodlEQDLMXJ50+Gf9evWx/+rWPXh3dV/3nuP8NM6Pf/1+9Xq69dHTpFXHXVVdX8/Hy1b9++cB7e9/73hX9zYAQvXrwYyuZ48sknq7vvvntU91VXraru+s27qs98+jPh/L//+79X27dvD+cARcRwc44wD+EeysyBIeMaFBrDpvtbA2TbRaj1mmuvqd75zneGc6l6l5TdREl/oPysZGnvSy+9tPjpZED29AHt4f4MyEf/76OhTrQdA/qv//qv4Twyoz9wJoKBjCHiPLLBQamvc3oGOFJdf/LkyerOd9wZPseQbNi4IXzOgYHBSPO55MVnOCLK5jsKB5bUOwdOlLqhK8jlZ37mZ0Z6iPM9cuRIKLtufFgdpo7cm3oDdeBv6qTzIq63ykaO4qabbgrXsDp70+Y3hXG0du3aUfkpcmMPmvqjrt6UJZkwlhhffI7twmFzPU4bmu5Nf9FvyHhhYWFUvo3scI9NmzaNznGUOlm934Ce0qd/+X/+MvwtPcy1C7hW/RnreArazISDNq9fvz7Ileslk/je9Dv9T9l1uoCuC8mNa+seGaXs2XKjk6OlM86ePRsEirPF6ZaEj8+eOVudO3cp2wHC1nMPVsUYvbU/uTYYvEOHDoXvMLtjUFhHjrFHObg357/xzW8UO3oGx/4H9y/+VVX/8tS/hLpzXyFDDpynPiobZTrw0QPh/8yEMSgoeR/YdnEw2JELlNR7HHL9Ec+uJwn1wIHQVkDeC99fGMkEfeOxxaf++lPhb2TGwJehACYfWq1ZmVF2Ts8gvl66wL32PrA3fA6MAfovNWERJfXOwYRDuhLrIXoi/dX4sDpqddjWm3ZhpD/3D58L5cYw6cNhPfroo+FvysahW0eK8zp27Fj4P/JkFdSG1NiDuv5461vfGuqNDFVvHJ11pLTx8c8/Hv5P+x977LHwf0vu3imuueaa6tZfvnXxr3KYDMtB2kkZbVR/pNoFtj+tjpegPsIZql8F97C6wHnZeS0ApMNtGcqezSJjO1oUAIOEcICOwOmWGAoGJ0rPwL95083hOhknZlT8n5AOMyG9gWfDc3Wwoi6FuvOCisq+7wP3hZluCoxLSgFk+IdknHqXkOuPacIkAAcivWKA0xfSO+q8bt260SqAQ6GoHKV6pnsBRu6DH/xgkBloNcJBORjbErrUWzDhwMEC9aFeWkUxYeIlxXHLTkF/0C+TIh57df1x+vSl8d/GDpSQG/cCp4GTRn+Qd98vwOXaxURKOklddu7YWTtRagP1Z6KhNnG00fEcQ9mzWWRsR4vBw0jZTiAcVbqqxIBvfOPGYGwYOBh4jI8UitkVnaqwAoc1cDFtVl8Kc2nmWBIOzRmXvgd4HePUu5Rcf0wL+pN+Rbc0GJnda9UBdhWgoyRkDm31zEJoj9W2rudfyiulS71TsLJ8z7b3hFCcymW11Bex80FPhjSQbRy7nfDKUXShzb1x+pI3Osvz5L6cbd/tagOharWLo6+XIYe0Z7PG2I6WwcWM2hoKBMUgxAmXsGrVquqFF14IoSsMKcqDwWeW/vJLL1/xbKYJDAvPEexMN4ecMkrLc4EmQ0HZPHezM0YLz71oM20ohTaWTkhicvXuUnZTf0wTVmaEJa0zVNgQqCvyL30+b2mrZ3VYQ0w58Wwf+dWNiS71LkWTJGR4661lIU1NbBRB4FqeBwrp+V13XfoMPYtDm32RG3sWzvM97IBC2HGYuw119+ZdBsZbSXi4r3HTd7vaoHvrvYOYWLdxnHr5rpRSO7zUGdvRMhDjAaDnRCXhY4wAb/9965vfCgOUmQydhjJTJm/eYei1WuaIX4ZidcPnGGGeIyhsloPnNDz451pCd6dOn7piJqWVOmVjRKxxty8sMACa3sBtQs80VAbhxxJK6j1u2an+AGRPech8zZpL4Vb9oJ5DG1LgoAlT8n/7Mgd/cw3XUkbpxhXMnAllcy1l6FDZ1BX50w/2PPfMUaJnKTB0yEiyRmbxipb6oz/SVcmsS71zUDb3lA6zuj1x4sTi2Tw8s2alrmsJifI8GeJ603aMpR0fXUmNvRR8j+9LV/RiE3UuJXVvysHO6DtWhzU+dCCfhz720GX2cVz6aNe4xPfmUFg81m0cL8/PRW7cl9iz5UKnn/csR1Ag/YSgznGjPMzg617Bd/qHQRn/9IjPcAAYmz5CWM5skBt7QzLNeztLn0F/3uM4Q1P3/E8RE622HcdxZhl3tM5Mw+qCnzjZ0NU44XrHcZxp4aFjx3Ecx+mAh44dx3EcZ4q4o3Ucx3GcAXFH6ziO4zgD4o7WcRzHcQZkyThaNl4o3UjAWZrQx6UbWfSJNtzoe3/aEmgrbS7dWKRPaKvda3YadZg1pqkLTfDb/VmqTx12ww5tyiJ0Lt6MRbpfd81yY1BHq4Hcx243fTOk8i6FgeFMhlnWBW3/qG1U+9hnedbxsXklODxl7BoHrucnd2zBix4pFWQONpuZVurNSeOhY2dmwND3tWF5GzAKGIfSZAJ9ImMzDSfHZiDxNqornWnqwlIFPWLrXWWSimEbRxzwSt5xq9PvaJkVsm2ZNpK22fcJQ7HvbQxZRBA8M0u7lSGzqV27dlWPHH4kGJ+4bNC1wPdtZn97jrLZPYi9N5UeTOeZfW3fsb2am5sLnwtb91S7UpSUHdebDC6l2zkSgkGpZZS5n92eMFfvlMxK4P6SJ7lQDx08NHKKXdpl5RbXmTbtvn939cTxJ8Lm5pSfa5e9tx43IDfpI9lINOhtm9in1To8yZNt+dAnro/bja6x961Q2SW6YMdIXV/YukFcb2hqVw61DUdbpwO2bnGbOadN81W/ce7dZDdSZed0uEt/pHQhZVNEnc0rHWMpHZatZC9gbeBvy01dm9Jhdlaz14m4v3MgNxKZxOPd1itVZmzHgDbfNn9bSExPljjyG2/ZsiUkstF9Uu2eNIP+jpbQExuKM1uJQwYoKSEpGo+y6zslSgdkgrBl282qUR6b2Z9dgwhd0DkChcIIcZ77c56OoaNZQfAZdVPYzNY91a4UubLjenMelC6qK6l6l8gsBYPh4sWLo7JJwUa2DcoFMteobI42KwLJrSmExGDTRurIjNmzssdA7t4YRgwk5+gbm40EfeRzDFcTGG5dT8LtO99xZ/icMjZs3DC6ry27RM8YI3xmdVvQL/QP/aSykQH9IGy7qD/GWP3RBHXjeRibuOPoKINnZPEG+SRaUJ3pa/aWlsyA6zS+Su8NfAfDnxpfTWVzpHS4a3/kdKHJpgB1UMpEyuYe9GupvcvpMH21evXqK+4dy4R7Q2xT6nSYdtN+xt3CwsJI15AT8srBxALdob+on5JraBKo8im3TfpIQcpOJgjUd35+vjr48MFR0nnoYnMmTefQMcplB2AfMOBJjUYWkToQNNlElKmGDkXg2gMXUPQDHz0Q/k9qLwy4kpmXMES74vRWKMWRI0dCW/u6V1O9S2SWgoG3/8EfvyxDSkKU3uYlHTc9XwlkkKEOyIxVGAbPkrq3NXjj6IK9nnbjhLgXMtz7wN7wOYxTdh2UjXOhf7gHsCrD4Nj+iusV90cdMn5yBjgVa1zRHYw4Bk5GC51hcmPTw9nxVXpv0BhoGtvQVHZOh4fqD5GyKdSBrUKpg3RUelJKSoeb7l1qU5p0uAuaKKJD1E+Tl9LJRQ7KfOyxx8L/6efnv/18+L9lSJvTJ50cLQK1+9BqJjM0GFlmO5pBaVbVF0O2y+Yv7ZtUvbvKDGXmJRJdS8oru9m/jIDKL10p90Hbe1Pv2FGnwDAJHJ6dOWtWz4Hc43y0XZhW0n2MOKufFPbZLg56546do0lBChKY58ZAU9klOjxkf6RAXprkMlZwALYdObqMnxKbktLhpco0bU5bOq9oNatBqZkJT8rZ2hmUDvtMpStDtYvZp535Yzz6THacqncXmSkUpevjMC+DlsGrc4Q5J6X4be9d4khKQLYKF3Jv/h0nRNYETklgvFmFTIJ4IoK+ord90HXykNLhofsjBe3iWSH3xPCDVt4ldBk/Q9uUWWWaNqctvb11zIyKmZUFQfAspik8KQXBiPCcQbNPHtKjKApVMYDsSwaETrhWP08YBwwtZSje30Rdu3I0lU29Qc8XaXccIsyhkA8zZ56bNQ2ouN59yIy+pE+5P89nm+5N//HywzTI3ZvnOi+/9HLjG5JtsasJyo5XUKV6ZkHGrIb0HA7iEOFQoIdERewzV/SVdiqM14Uuelhy7RD9kUPjmGencv5dVoxtxk8fNiW2t0uROpkhC6Jw0/htfszYjlaNUJiGWRyGOI7P8yyGWaa+pxUW4QuFObn2mWefGc0+UZDP/cPnwgN8rmGGZl9Q4DxvCmKIVC5Hm9kMISmUkRAo1+oH06XtStFUdlzvtmVrhsx1e/bsqY4fPz5aVebq3VVmj3/+8Wr9+vWjsnkDUvembbRRZdKntJ8+LgGd4DrktWbNmnB96Q/YS+7NJE3nmajYNzIlM0KQ+h7hxxJwehht5MF1yCNeQTXpgq039+X+/F/jg37jOtrD58zWeRms1Hh2gRUiuqN2oTMPfeyhsR2HpU4PS/s6p8Nd+qOLLiAXnmnLXumgPMrNUaLDTXS1KUAZ1t725ZjoF7WHcY3M45fuOD/UuJ8lPE2es6xhMDNRKw2RO05bcKb6CY0MvT4jMtHG6TlLE0+T5ziOMyB1z7AJTfP7z2m90ObMFu5oHcdxOhCHXhUO5SdpsxrKdCaLh44dx3EcpwMeOnYcx3GcKeKO1nEcx3EGxB2t4ziO4wyIO1rHcRzHGZDBHC0/KCaZ8FA7ctg9TfUj/5WMfnA/q1uQLRXQq+WuT/bH/pPeNQf9LN3IwbkcbfAwzhinj+nr0s1YZgG1l6Op3kulXWM7Wu36ER+lO3t0RXv6kpViCFaCwV0u+CSjHfwcpUv6slkGw8sEfxI2qC1uU9rBRh/Y+Ka0hV2ZZH+M7Wj5fRhCYINvNvpWui2b39FxHMfpBzmecX6by9aTpEJcbjukLZV2df4dbdNWY8wod+3aVT311FMhM/7c3FxwyDYDPisQfuQNqQz8KZiVsFF4vM1ZrmzqV5ednw3L69LHsXKmMymXTbttln/a+cjhR0L5On/06NFq67u3hnbrWpC8SJQMdefYyo1EDOy3WioXXcue0SRJpl0XLlwI+6Bq4hO32d4brMyAyVOb7eOYHVrZsck6RoFVxr1b760Of/Zwte2928L9Y12w18b1jmVmr6X/kVOMrXubsqFNu2OZqc0lIJftO7YHHRG2fk3yFLbtsZ7EfQ1137G6a0nJLEfT2KK/ND7YK1sb+1t5p8YHxGXr2rr2Qlu7khoDqf7gHLDdp/pE5+PrhG1bXP+mc3F7kNfu+3dXTxx/IiS55ztxf1k9iXWb9mJrsKGqY/ydujEWf6eJLuNDIL+6bVRT7YKm/irpj7ZM9Xe0ZITA6O/bty+EqdimjCwkgJFBMUhvxCyNXVTIRoNSdSVXthSXTag5z6FsG3QWfyN0Ok/n23QARgLlot3UgaQK1AlIN8em35RJNIBN7jVIBdei+HyHZN93vuPOxTN5mNSw+Txlk8lEWT3gnnvuCQOQcukP6sVAAGRyx9vvGMmMo2QgCdrAxuaUq+vtgCKLyo6dO0LdYl2gDvZa+oVsThgRYMJCMmvO0S5QBhf6RVEVBpLurbrnyrb9wUG/l4LMNmzcMLqW+6N3JTrM/cmA9OSTT46uxYgqcUBcb86TWEB6hLzRHdrOecqxOk7mGpJ2cI4+pWwlz8+Rk1kO7l03tgTjY/Xq1eEc7eJeqndqfHB/6qGyqR/XUl9kRjSNti4sLIzqroT2JVAOMq4bA7n+AIy3xi22gwkFdS6xKamxqbbxeV2of9VVq0ZJJ+rGPffR/evAWeHI+E7cH9RBqQc1ziinxDZ0GR8lpNpFv2zatGnUXxyyRyX90TeDOlqyZ8hwcDDwb1jMscksigGjQUAKLhSkj1RNubKV9qtNvsg2WINJOjbuhSKjYBgOMhoBxofVK0mirRGzikzCZq4pNXIyppRNlIH7ir0P7A11grg/gIlRU0rDFLSLwck2dCq/DtWtThfstWRhmbtqbrTi2f/g/lFf1rUrRapsBuPatWtH/dEWykSmgpRl6Pz6desXP2mG+zPZUEJurkVvaBd9Hac6w0gw6aI9kje6IweGLkvHOY9xVNno4ML3Fy7r6xS5/igh1mkLxlpJu63McuOD+7/40oujcUv9kNE4OhsjmTNhka6JXH+IeNwiM5snNkVubOZIjfscTf0BtI+6UCeVXWqPuGbc8dEHTO5nJfXfoI42BYrADFAvUZHeyYbvupArm/PMmmWk+gajpnyn3IMZPQMTBWOjcWZZqpsNqwgZSOC6LrktLcxOdV8OGw5iUDA5uPXWW8O5Ni+1aeAwm2/i/KszcQaaYPaIUWLAMnCRg+qFfGweURwibxbqfF3Yp46SsrtC+GqcssmfCTLUMghWRqkN6TFYTfJWLmKVHTv1FH3ITEZb6eq0MsuRGx+M23Xr1o3K5SjVhRxKDJCS+ZAJAlJjc5qgY0zasAXoBpMenG2pPRp3fHSFSQeTD+nxtN90n5qjBbts16HlfVdSZaccwtDgcFA4W6++HGkKnBXhJcI3um8cckE5CbVxjtk74fUSZ4vTwPB3wdaLQyE/7k9IVCFWDvq2DU1ld4WQpsJqlMu/9G8JcoaaEGIQ4oiAXdHIAQqiD3bVYjPIoEtMJDHWlM0G9zbCU0IXmWlyyXWEYdG7UmebGx+svhQu19FHyE/9kSLVH10oGZvTgskFz33pEyY4UBoJ7DI++gB7L3kyHnj2Py1nOzVHy+ya1RNK1je5sjlPEvPU4McZN4W/MGgYNs7xzKh0lsYq9+WXXg7PsKYBoUlNMmh7atbcZvaOczh79mx45thWkTGgzJBzz25UH/qUvrXIscQhxFzZTBBwWFpNYhjariQwzhhpoF9LdUHPp63T0ERQ9bbPyvg+ekcYF3kTztMzQNDjEB6TICNC4tZhlTxTg9L+KAUZo3cl5MYHq31koOfzdcR9Wkqq3bn+KCVlU9qMzUlBPdExOwFouygYd3z0Td3iKtUffTP4W8f2jUbCCDRO30OhbGio9O1Gyq57w5CVTmnZGCP7xiczZfsWrNpV9/ajfdvtC1/4QvXmN7/5ireObVmWuFxQvXXOJpAupe5aHAernrp6016ed506dSrcO5YXA7/N25pgywcGKHVB1rx1fODAgca+pa42DGj7w56jH/kMY2pXMrFOWF1IlW3bTR9rQOraFPE9n3322TCDr3uLN6ZOD0AyA1vvuv6w8k69aSokk7ivIS4/JbMUdWMzHpd2fMR2IjU+oK58KzOw7Wurx3G7m/SoTl52rNXpfNy2JpuSG5ug+zM5SY37OnmB1YVUf9Tde1xd6GN8SGa5dsX9WOdbUv3Rltxbx54mz3GmQGzg9BkrqpLJZoo6I89nhOB5Dl/qdJyVjRyRdeL6LF5YrXSm+vMex3Hqsc/7BKFvG2obF1YzrPgtCqvrJSzHyWGf+wterOOFtSFfDFuO+IrWcaZAXWisNCRXQhw6Ln0s4ziWutBxHKp3PHTsOI7jOIPioWPHcRzHmSLuaB3HcRxnQNzROo7jOM6AuKN1HMdxnAGZiKPlx8Pa73JSieGXI8iRt0mdfuDN3+WSMJ42THs/15XMkGMTe4ndxH6y5ze/iU5BPahPCdPUm5VkzwZ3tCgFW5cp9dRySAxPmx4++PAgE4Yhjf9SdixtjIfTHelKiWFfSizFCQn2MpUmz5l9Bne0/HieH+Erm43jOLOPUtI9/fTTV+wh7ThOOzr9jjbeb7LuB/esQti4uc0P8Zlt7r5/d/XE8SfClnSUb39wz3ltDYYR4If5ub1a9SNr6kwigDNnz1SbN28OE4Abb7gx7HaivUOb7g11+2uW3jsHq7Z4f1qw+3cycQF9z5YtuWgTBNsfubJLsO2ybS7pD1YS4+w/G8tS2H1JWXHZfatL9yxVvZ959plqfn7+Cj2DWMfbyiu1/21u/ORkFsumzw0vVPfHP/949ev/89erj/z5R4rK1fhCF8hIQ5/YekkGhz97uNr23m2h7fZ8SibU6brrrgv9BsePH69uv/32UX8jL/SP/aolF/VXrCOizUYetj/A6oLkBXVjM9UuzuX2hYe670E87qFUT2kTW4GeOn1qlG84vtbqWduNT4aQGcjeWLtq5aPJIeXXld03g/2Ols5lQJF+i5AwWUhg14d3hX9RFJ4p0EEogHJIItwSVl21KgxU9malfLKVxFk96ECUkfMkYb7zHXeGz+lcwtXKXoKAKUshMLYVY4s6Pke56DCbxLnp3igXIRzC4AsLC6PybQox7tGU2T8HxgI5olDUTddbpUdp1GaUlkEiw7P13VurI0eOhHPqD2U6KSk7Be26ePHi6DrS1sXZepr6g2uZtOjxAXki2XeXgZGD+nENxpT26v5yXpRBWZTJ58idjctL9Qy2bNlSq2exjlM2eoV+9QH3UdkcNjNKTmZ1Ot4XtJvJMVmu2LLx2muvHRnhEhhf1H3fvn1X6CGQwWXHzh1B5tSf75MNJ2dT4KabbgptJUr2ps1vCmWQqUhyYXxgXLke2SEjZMn4ZJxyLWOAsvlO6aMsyr/j7XeM+oMjHjtNY7OkXV2gHLJXqV6MlTZgn1evXh2utTKDWM9oA22hTTmGkhljhPbWbWNqwfc02cpJM7ajjdNE0XiMvJQeQ6gGWsUuNeyAcZEDY9CT/9EKCoVSeTr/1re+NQiUDtIAwtFZR0ruVGbqQN1ILRaTu3cKDMlQmf3jNs9dNRf2JIX9D+4f1Zn+YONvzRi7QrmUL+J7Q11/IDPkTn+obsgbQ9mHjGx6OKDPyevaJv1V3Nc4anRY4VPl36Rs2iE96oOmeqZkxvfR8Th/bV/QbvqWtHSUTwrENm1mfOEAubZJDyVzvsPkBqOZsynAOD527Fj4PxNkVlgWxrMSzxOdQmZ9jQEm5yk5NI3NknaNCw6Rcg4dOrT4SXvqZKZ28q/VM9pAu0onXkPJDAcKjAW9d7J+3frwmfbzTtnKSdPpGS0d0nUD9DYgeCsohCdwpqwITp++tNl135tex/duAuOBEWF1xwp+ki9eMOh4eYX7KprQF1JolU0y8Xjj+rr+YIBg6KiLriW6YcNcXWF2y336gAGsJPbUe926daNoDEefMpVxU/l2pTy0zFJgGHGuMq70a9e8nXaiygs9OHHBpFwGcQibklv5lIAsmDyQC5n+aPvriUnbynFhHDGegP6i32TLOEIEojCn7JAyw74zRnD41Pf1a18fPj937txMyrmTo42dDw2PjW+ftFFWO7ikMF1oc2+cDKt3DpSA5wldjFQJKDChRUK6ujfRhL5QmEuRCcJBckglUBfVS0dpSD1HHG3oYljRYZKPq69tNEaHwtZdwagxGaFM5MnjCutsh5RZE8gRp0pIT8YVQ8s7DG3CxzGlk6EhbEpfk24m0YSf6QeiDTw/LHUck7aV4yJbaWVmHzVx2EdlOYaSGRNi/j//K/PV1776ter666+v1q9fH2xSX5PuPhnb0WpGSugO6KA4ZNsXdAzPfAhB5YTIeb7HcwV1aByGaEPdvQlN0MkloU+FOErhHhilVLglhQYIq1tmkpauZctY0tc8ny01FKyIqIue+4wDcqxbVVE2ToA+BvqLviesqP4qRTqsvkbH0Rv7fLEtmgRQLyZCTTJDp3jhSaRkFvcj38FJxyjC0SaqgmEjxGafqzHRWPj+wlh6Iz200Y4m+rYp9Bv9Z1fP6BGfdZk0QBvnXdIu9AJHArxfwESnhNgWtbm2DtlK6oyeMRawf7KlXehbZrBq1arqi8e+GP695RduaW1vJ8XYjpbG8vYZRo1ZL6EtBr9CQH2gkAXhCgRcWjbf4/tcx/V6sanNYE3dm3J4bqHv2N8aouh8pgP5PPSxh1oZfZ638JxQZZS82EOdqKfqhFE/ceLE4tkfM07ZwDNtZoxcQ1/zlmLpipZVGOF0ws26b9swkp6TKszKy3bAjJm3celjPld/tVn5SWaUjWFRX8c6rsOuOlPYOu/Zsye8JSuZ0XZtQsAR1zsnM9uPehmM58ldwWCzorc/x5PBLQ0fY/hVb/6lbiX90YdNsS9eUk78hiz6gpxVv1I9pM/5vo42NiXXLs5be4LD5fmi0L3RkTVr1oS6y+bUXds2kmVlhlO1MottKUfpxG1ImTHB4HktusZ3v/LsV8Jjnr6iF30zk2ny6MS617cnwTTv7ThLHZxW3U9QJgGGnVWPfjbjOJPC0+Q5juM4zhRxR+s4juM4AzKToWPHcRzHWSp46NhxHMdxpog7WsdxHMcZEHe0juM4jjMg7mgdx3EcZ0D++w03rtu7+P/L+OGF89WqVT+x+NdswW/1/uzP/6z6r//6r+q5555b/HRlw+9//+Iv/iL8YP1LXyrfmGMS8PvGD33oQ2EThB/84AeLn04WNrj4wAc/UF384UXXmULGkdk0x6bGAFmj/uM7/xHq//Obf776p3/6p8VvOE2wcc0f/u8/rF73utcl7UefYxldUR+xEce+P91XXXvNtTNnv0p46cUXq6uvbt4DuvOKFkGV7i7UliHLdvoFI6csGsuJWW4XdWqzvWKf+NicLOwC9fDBh4t2sXJmDw8dOysCEgG02QzdWXoy0x7Q7HdLUggSgczqlnyzBlsbsq/1JHfDs33ElopkdZrVvYq7MvbvaJnN1qUMY49OZTdhFrZ9x/Zqbm4u/G3PpciVrW3ennrqqZC0m/LJsmK3XmO2z/6fwGbt7IdbYjBYHcRbMFIfQrKquy0b2FvU7sdq60++TLt3KCsBKZO+Q3aMnIJzz7rt5VQ3Uq5R72eefaaan5+vrr766ivujdzInsE5sPWmfDaNp26qV9yuJmhT3Ubmul51Z39kbeZeKjOujfdfrfusCauDsTzo6933766eOP5EKC+WWa5dQF2a9EztPnr0aEjKTx3sGIj7Ix4f0kWlx1PdyLtpx5WI21cH8rh3673VgQMHLvue6op+0UdNMutjbKaI29zm2hLq+lT9Gd/b9gfyyY2PLuO+SRfiz4XVtVS9c9jym+xk3Oe2T+L6xTKx4wNKbN1SZLDf0SJMZkB0KsJVpg91MB2gzc75nE2p2QSdTsuRKxvYTBqHsm/fvlA2GSeUwQVjguFUBhLqQF2oU1co446333FZdpNYsdgImzpxjg25P/R7HwqDQaC0OEfO0z4MnD1fB4O0JHExxo2Nu8m4wmzRZr+gHtSH+1I/6kl9BQZI9WJAcL5EZvQL92MA2pRaVi4YgdWrV9eWnZKZsnjYTEkYPJKFpxyKwGiwKmtK67fqqlWjzc5jmeXaVaJntBtDg57yPcYA18E999wTjDHXanyoP2Q8WaHpvtvesy20WW2iTtSNOtrzKVg5gJJk15GSWdexmYMJCQm+KZN2QZfsSRZki4ypk/qVdqg/SQUpeXOezEvWXqXGR9dx36QL9Cf9Sl8sLCyMyreRhly9U6h8ymVFGRO3i3aLnE1BNhs2bgjndC3jpcSmLDcGCx1jrDBajz32WPibDiXLRNcE0gIDoEwQHBhe5SHFENP5UkTqQF1K0tqVgCFpShnG57STOgGp+XCQNi0XA1xJv0kfVuJAQxq1ly6lUUOR9WyOgauZMmDsaTezTTKucB64P9ldlFGG+iEj2w5bLxwcMk4Z5Dakyk7JLK4ng5SsHWQT6osmmeWgTjk9Y5UgPeUFEs6r/L0P7B21mX+tDitdGVl6+oRwHcmxAYev537cF2ONDLqSGps59j+4fyTPtv2Rg/7SBE1l2zSG/F/y5jxRLWuvxtVhkRr3KV1IUVLvceF6JgO2XZacTeFv2iX6tilLiUGf0fY1cNvCwGT2qPRMpFhSWKUrKA9GhByblG3TbKGYKD0rGN2bWd4111z+NhoDXHLBqOzcsbNWkS0YSJQaJWWWiGw1SEueQyET0kgpHRaHDQdNixKZYZRwrsgZJ3b27NmRMZ4mJXpGHlelnKPPSfSu0BkTJl3LYUOaGFmcshLQ9wV1wNhR95s33RxkKcNnJ2zTAudPCjjJpE8dpX2sFNEj9A5npLGIDMhrjO7p3jbkmaKPcZ/ShRRd6t2VEptCyFzn6mSyUhjU0aJ8KKEondX2gQ1r6ejr2QCDhNANZTKD4xmFnC3YMCOHDfOMiwwkxvG6666rvvbVr1Vv2/K2sLouNZDMqBVm1GFDftMkJTMcFat5nCyz5ZIk4pNiXD3DoRCytu0mjCmGfIkHfdn4xo3BSCJLdAqjOe0XhxhDhN6ffPLJkUyQb1/QPp4lYvBxDqDVGJw/fz6c0705mBjJOeYYd9zndCFH13p3IWVTCF8rVM/n/EtdVyKdHS2Dti5MwQBmpqVnMwwi4veENUoVoKnsHNybFaeehY2DJgXMNFOzamucaBez1iGfQ1x//fXV888/X508ebK65RduCc8Y9dwtBWEbQpF9Pe+Koe2sshU2KqVEZnwHveE7TCz0OGISpNrVVc8IK2uShJ7ZVUxJf3Et37HhyVJWrVpVvfDCC+E+3JdJsepSwrhjswSNKeSKfPuAehIGtc7MOiNN5rZv3x7+bkOJDudI6QIwxtH9+PFXl3rniHVfEwJRoqM2KkMdfUU7JpoRKnxAqACYyfEGGx2jsAGrvzaryqayc3APnrvd94H7RmELG+JNgXLxMoZCwwxOhf4gDvHoRRqFgHixgnbSXn2nr986MhBvueWW6qvPfTXUCScLJeFF6sfLFkx2bP1pT1/wnIgZrMoufSGjRGYMajh16tTIOJZAHSgPXeBH8dyjVBdEU7u66Bnjg+dwuhY9YwIl6vorLpsykJvKKL03jmzz5s3Vt775rXAfIiUYTE3YSmQ27thMQV1oj0KwrG5PnDixeLYb6AyTNRve5ZCecZ43aZlw2PN96nATOV0AZMOzUtWf8DqOr2u9Zc+oN31NHVQ2WN3Xy608woKcTeE5NXolHUHPVuqK1tPkOUsCjDw/G3nk8CNF4TjHseDweIsbZ6vJvj5jNao3jx1nHDxNnrMsIOw0Ky9BOUsPXhxkdWUh5M7jrWk/m3aWP76idWYaQpI8r+Kliz43LnBWHoQ04zdyeWbb5nGW49SRW9G6o3Ucx3GcDnjo2HEcx3GmiDtax3EcxxkQd7SO4ziOMyDuaB3HcRxnQDo7Wn7fyI/Z+9qUwVl58OP6PjY8WE4wlhhTyEVjrHQTgqHh7V1takCdSjfKcMYDeU/LvtLH2nu6qZ/1nXgMU2/XjUss2RWtDJF2IekbKY9PIJwU6Iky4Dgrmy4OcWh7Ni78bp09m5vSTDpldHa0bMNFPsNJbWI9Kdjf8+mnnw7bjY2zl6zjdIGxxD6zbLvJFpvsGTsrGytQJ7bSY8tG6jREliFn6SBnPCsJSmaRTr+jJWykDffJNmEFzQyfpMBsecZ+wHNzc5dtOsDMDWfGoFUZZOpgKzRmd/F2adyLDCPcQ5sYxOj6rtj7K7lAabm2nsCK596t91YHDhwIkxKVrXRqFy5cCPuFcg6QG9mAyDICtk3IjH1Qjx49GhJkI9NY7jlsn4H9wT7l2x/023NcB7RNsm/zY/9UuyUzqCs7lkm8eQUy3r5je5AHxDJJtTmuV6k84zoJNodnj2/tYGV1NT7XlTbtksyAz+22g/qu/cyWHetoV1J6liJnUzTWDn/2cLXtvdtC38S60tQf1Om2+dvC/uHsFnXs2LFqy5YtIc0h15McpclexfonSuWWs2ca96dOnxpN+q1dSOkw/UjyByuDus9yxHZM2LrH9pd6k2jBjnNkZ783pJ6lxh7n6EvQ/dvYs5hBf0eLsMiCgeDqYMszBL1v376waTV/K5sPIAQMLGUQmmBzajo0B0pEaiYGEcJRNg7byV1AmUnKzEb2zNj7zFJCpgtWKqoz0QApFvfAkLA5OeeQGTJBYQWDCSOFTJEZG36XyAxQasqjXN3fOjPy3Opz5BpnI0EhUU7O0+cM/hK5yBA0tRvQhbqyY5nQ77Drw7vCv9RPm51znrYhE9oKyGbTpk21bQbKUb0om83ZdW0K6k4b6IOFhYVR+TY1GuVQntKIkf6NulqZjkuuXUzESI6hdgG6h2HFoVqdZntC9F3pB9E3qyfInj4o6escJXqWwtoU2y5BdpgdO3eERB/U39qcXH+QNhAnTmas+fn56uDDBy9L3t5kr+hv+p22YJNUfqzjTZTYM8b96tWrw+d8h3ur3ikdpk+RgdpAH9L36ECpk01B3bkvzj0F9ZFOqV1D6lnJ2MOeqT/b2LNxGPQZLTF9ZbbhIEOFVoiAYh346IHwf7LREILSymaaMHNlX13qjLO1g60PcAR1hoV7EKpWZhTuj/IpTRUwM5NM28iM+6HUZADh2hg+2/vA3sW/LmXLof+UFBwYTBokDGDkouTzKTB0DHYygTTRVLauJRMIYBxwIEoEf9dddwUZKHUe7aCN1pFgfOP0YsD1DEbVi7IxtH1MrCRvypNBo1+pa11dxqGpXbD/wf0jhy/nKj1BllanKcPuI42+WT2Jv9+FEj1LYW1K3C7BpIu28B3ZnJL+wB5Jjxh3z3/78gw607RX9t5WZjkdRg7IQDaEPqQvNZ4mwe/8zu8E2cer1aH0rHTsWZm2sWfjMHMvQ1lHPA1QTpRUs3uUACNknV0XcCYoPrM43uTTzBMYtMyqlVaKQ2ENQShLaftQIp6Nl4Q7ZMgULqmDcIruG1YDPeWOpE9R8nGf4+WuZTavARWDocHwKr2YfVkFmRAmVF9wxHvhdgFjmJJ3F1LtAlZaeluUw+pRrNP8K32nDAy3yuXoUxegbz2jvmr7+fPngyMSrLg0gRuiP6Ztr0p0mL6V46Wvn3vuucsc3pAQviclIzbP3nNoPSvpa7uqZzzt3LFzMLnMnKOd9gsfzKZQXKsAhIz6WOUIhVtQLGZe1tkyy1K4Qwff7wovrqB8TVAHVtrUSXXDaPVB1z5lRWtnmkxISIItrKGF2PgxEZEsccqEsa1hVpt19PViH3W0Kx7aQFv6oqldzOgJkxEu0/n48Y6M7x1vvyPIzzonsCFMDhsS78IQepaaaFmG6I9ZeEEtp8P0Las1njnfeOONo0nVJOC56yc+/onLHudYhtKzocdeW2bG0fKcBUHYAS+DSSw/XtmhRAyw1EpTM2f7jDMHncOq0To7nsdQt9KQhgy/DJ51Cha9TSpoO/exz5z6QquYu+++u3HCYFeOpKXra3bZpV3SB0LEQN15lkJojzZhNJgY6TlcXdjIYme5RAZefunl0NZxYQJD/8YhXOrGLN4+94nD3H1SN3uXE2B1e+utl9dPcr3tttvCzF4zeWTG322em7alLz1Tu0ocR9/9UWev6IM2dsJSYs/qKNFh2s4qlsXDuXPnenFkbSAET7ifvpItLtUzRWba/Gxq0mOvhLEdLQ2g8TgynCCrPv6PcyuFB/wKk9oYPp3Aczg6hnMITOFSi83+z1E3Y2oLim5DCqDnMSWDQM9XadeePXuq48ePj1aSVmYcfIfBpdAWbUcGyELf4WgzUUjBypj72dC0yub5CEZC56hz15WGqGtX6Q/Z42tjmWE0eJuQt1A5z8weJ6xwOjqhe3JQzkMfeyj0LwdvXjIxst9po0fUj+dMioBgFDAOEMvb3rsrqXZRJ2SgOjHZO3HixOKVl+A76DmrnNhRIVuuR5Yqv42hS9FVz5jU3PeB+8K1/Ev4vOTRCXTtjyZ7JdBF5Kb6td2sYRx7VqrD9DFvRX/l2a8sflKG9Iw2rVlzKUStdnHwf85j//EDdfcGZKNHHfIRJXqG7WXhg860eX465Ngbh6mlycPA40DbvGLuOM7KBcO+a9eu6pHDj0x8VbbU7RWTv7qf5ywFcMxMJGZZ9p4mz3EcZwXDCpFHRpN8CaoPmNywGp11J1uCO1rHcZxliB5VET61j1uWCnrZbznsOji10LHjOI7jLAc8dOw4juM4U8QdreM4juMMiDtax3EcxxkQd7SO4ziOMyDuaJcg9ofiHCU/bHccYfXHbrAhtBsP59tuugDoo67jN5B9bXbRN/x8xNaNvyUP2wZnPGL59o12/iuxgUPXJYc72gEYulPZbo0txrRF5FJ7bd+5BPqBnqAvQyCHGesiv6UkhRs78tTtysRmEOw5y9ajqf2xnaXB0Ho2Ldj9CfuXS9E3C7ijXWIwaPgB9yQ3BneWJmwZ+vTTT4fUi11Tj7WBPZa1nzH7//IbzqXwO0jqysSD/attGxynK51+R8vSXZuZa9N/sjFo71HCLrt37w6pkoAMIqWrr/hasFnyU2Uzc8PIUDfVK743oQadizP759pF+ezZKXSOFcT2HdvDnqIWWz6Okiwr7JsKzMaYmZWidrO/brzHaywTMgFpRxXdl832kQ17k1p5lmBl1ubaLv2hvrDftW2JZRCjkBLJImgz2L7M9XXcp+ov6rD7/t3VmTNnghPTrJp76PrUvbmvPrO0GSMprIyUnCMuF31JbWlI24fYti8eP7bN8fiwOow8yThkdwmKP7Nl1+mo1TOw5XdhWnrGJvmcf+L4E2GDfsZ+PH5yepbqjxwpm0O5bFt56vSp0UQvLtvWz/ZX3RhHxsg3tpeSbVznofq6jsF/R0tDaDxLeISojAkcZMtn02jOEaZiY2eEX4INjxLCohOU0LmkbDpP9UIhOY9SAN/jb67jPOXEmf2b2kUZGzZuCJ+rbGWgoG6E3PiMTlUGIMJ0MlS7PrwrzPD5nPOsTjVIUygMSJ1RagaGfYYWy4SygftZuA6l5DsnT56s7nzHnYtn0nD/ixcvhus4SMGWygQUM25/UFeu6wJ9qTbb/hKpvmZDfvSOc9TPpvtaddWq6sYbbgyZSdavXx/uwfU2+UTTvTEW9BF6wuec5yg1cDkwbKRGI7sMq7M+0zx2gbaTmo8xXdfmre/eGhKK8Ll0WFmfiOLE2XHoNyUBQUeRr8qm3+i/Jj1D7n0yLT3jPEk1OM/12E1l88npWa4/cnAf2RyOeBcnJkyrV68O57i/Hfe0D/tH/TiPTbH91YWh+7otnR0tHViXpZ7BQMhK2WxwNHSINUJNIGgUTeFRZXDQzLykbFsvjA3PmpT8nO/lMvs3tYtr9j6wN3wOcdkpaBeKRZYOQCGZsZUYQTlxFIcZqwaNnDhp4jBCtAUoG4O1du3ayxSXGbEGEu2iPiUGmPvvf/DHmZmsTEoYtz9svk9mrgxO7sl5DE4Jts11/dXU13FqLepHPemvG264pIv0H/1ByFGyt+TuPRTIlLSI1Jn7Sp6zABl4muwAOoauATqME9VEi89xIrpW40ly53PsgK6n3+g/Uhii4zg2q2d9M0090yIE2oxrSPVHCSn71TTu6TscIe2SY8aeq7+6MIm+bktnR2tTytHRylLP4Fi3bt0oTREHMzoLhlPnODSDU55WdT4GAieCAkFJ2U3QCSihVoQcOK84J2ZTu8DWu+7aJlAwcqdyja63IZuuILPcMyXJEAjJlO4jitx4oUL1Jm1WU57dNuT6A2fKfZh1g+5JDk6epY0DZch4Q6qv+36+GN97CJApxk99TVtwul2MaV9QF+Umpa/jN3sVuZEuxOOaNsmwY5DpH/UVcuX7uhb7oBD0NJimnpWmlcv1Rw45UdliG1XMgdMtnSwvdQZ9GYrZjMICOmx8nf/bc5oNonAoHuFGOg+jbmeqkCs7hw2jcJRm9mcywGobZ8B1/MsssxS+q2t19LVpdjy4GORyTF1RCFoy7/uN1Kb+wJkSGiNBuQYlBpaIxrgvqrQZ4PHKQFGVcZmEcWFiyoTOTl4YS6mVxyShX+lf+plxzTM+jDsHoUNCiNIDQqQWuzpn4mAnjsD3da0OPeObNNPUs5JJt2jqjxKwW9gvrsUmEMIudbbxRATbhQ1bjgzmaBkQCE3PV9rArJaQp3VIcsLQpWwUg5ll/PykDVaJeUYRr2gZXNQvDtURAmclpucnfYJMgDAUMGgJnzBwNGvuimbdlM3z2T6ceGl/XH/99cGoYrwwsPw7zuQE2dMH9EUO7ofDIiwP1E/hrtOnfxzSLiW+N/VHpqmVpqInbVYKGC8etdiJKEawTienjX00IPQZdoCVlgVdZnV+86abw98KtwL9xfe5LiaWNd/BKQzFtPSMaxlLdvVcomeirj9KYVLMuzQl0I88BtBzaohD6KAJB/pfGrWcdF+XMJijRZC8+YbCaFZdajCYYTGYcLT2WoWWu5QNOG0ckC2/9HevPB/BYClUgsGPV7TUn/JZifMdhWNQAN56Y/aq+3KoXV2IZUL9UDY7QenC459/PLyIobJ5k5C290GqPzSh4WUQjBZGSS+ElKLICAeyL33zkH7kLUgGKddSP+rZZoWUuzfP64mQ6Dt96AIGxhpaQHZ6HMM4UXvWrFkT9FQbNQB14Dyfc57v9bV5g+6tQy/xoL8cyFcrcVa3J06cWLzyx6CLW7ZsCTpg20i/8KxS447D1tvKWi8fERnpi2nqmWSma+Nx36Rnqf7IgVyRr65tW28ikNgo2VJs10MfeyjIjIN3TBTSxiHbSYu9N3LXIwO1a+i+bstMpsljwMc/K+AzBIYSoJiOUwIDjxVem8cKfTHNezuTZVp9zWS09KduznAsyTR5KGwcllQYYNwXYBzHcRxnGsyko2VmRvyeUARLfw7CCvoRtuM4juMsFWYydOw4juM4S4UlGTp2HMdxnOWCO1rHcRzHGRB3tI7jOI4zIO5oHcdxHGdAxna0/H5ruSQTpg2lG1b0jTbKd1Y2S2U8LadxPwSMZ7v5x0pmmnZ11vAVrTMRMDwPH3y4l92FYtz419NlEudG8kqG1OGlio+9MtzROo7j9AQ7Q5UmKHFWDmP/jpaZDFt/PfPsM9X8/PwVmf2BmZ/Nvk9mjdK9d5mNaz9bbSZNhhdtM5Yqm9kVO0lxva6N781M325STTYg7U2qtinFFnkmtbWatoc8/NnD1bb3bgv3t9eCLTuWSVw2tJFLXG8rk1S9kRfJ1Nmqjf1M5+bmrqg3crNp+2zZnGO/0aNHj4bk3Fwfl2/7Q+fizwWbj7O/qwxSSmYp0BP2Oo2xMrXfie/blZTMtJpkpzPdP6XDYM/nsDKz7Yp1RNj+agL93r5je+hfi/qEvaeHHPexDufKVpu4bvf9u6szZ86ExAl8Dsg97pO2elaiw1ZucbnoyG3zt4UsVCQPOHbsWNirmcQPGn99yiwe13HZ8flxyY092Qz2RVcyi7hd4477WWPw39GiMOw/TIYQm9mfzsews8k059jlid2dEH4pdABGiuvpIGV6KCkbBdC1DDTOo3DA9/ib63TeQko4NrvmHBlQ2CBcRhPI1rNj547QbsogyYAyb8RlU0fqSp3Bls0hg1ACg3nTpk2jsjmsUc7W+9V6ktlj37594TwoAxKy2bBxw6hcZBJn1GEg41S4nmwwbNpNneCee+4Jg4RrqR/nkAWDhuT0fH9hYWFUdzvrz8ksBUaWtmA8qLPqr8FM+5GDMtmQgo09s227xqVEZugwEz7Op3RYbSgFuV+8eHF0b9pFRiXKpe18hm5xT30n52SBPqFvaAv1kdzoQ2sANe45T7ICmzWqy7hHH+34iO/bpGeAIyP5BPVS4gnar+1bx9WzEh2W3PhOXbIN8mczyT158mSYoBx8+OAo3V9XmTHxZQN+rqU/wGY2wyarbI6+0nLmxh5gM1avXh0+5zu0S+Ojy7hfanR2tHFmfxQfQaJAZEsgaz6grAhSSl8CHajEwpSNYpKzsKRse63N7E8nYuyasu9Tdwwz2R8AhWSAxLk81W7KYIKhdE7UwZZNth8NKIwj6f9U9jjg5MnHGlNSb2SAEaJunCfDC5MR4LO9D+wN/wcrM8EMXtcrG4yu51q1mX+tTHKkZNYFZMJARg4yLOgM9a6TYVtKZIazk+GxOqyJmXS4Leje/gf3L/51edmTQPof61Ef4142pI6cntHXrIzIqIUeWYbSsxKwR0r/hjye//bz4f/QVWbogWxw3B9iWrmIm+wwTLM/Jk2vz2iZQSJIoKOZxSkFEkddOCuFTfWFIu3csTN0Sh9lN4ESEN5hlqWybWgQGMTK/wrM7DCmKDLOTimrOCgnzlc7LsgAA6fy7csqJfWug/qqDEJBqXoT6lKqKvqFmbFW1MxOdS1HXUipjqFlhj7qEcQQ5GQ2FMiN/te9SQ3XV5L/LnQdm4wju8+5jcjArOpZF7rKjAk8bzo3XStHp/JLV8pDMsv9MQS9OloUhmTHyiHKbEahJx0l4asShiwbR0qn27LbhFtsGIWjz5cjcGwqlxAbz2bkKMepN2VwHoPGSkLX8y/llcBA57mvbXebkDgMJTOcD3opWPERQu+DLjLrCo8JQGOgKWQ5DbqOTb4reRKRkLOdZT3ryrgyY+XPoxAeHeg6wuUWTYo5h54gw1lwtjCr/dE3vTlajD0hWa1CWfFh0Oyzgr7oUjZ1w7koLKPBK1ixMVnQs+Y2UDbtj5/TCVL8YfgVtsSAlM7I67Artbb1pt0kVSbkKAipapJEOW1ml4SVVR8GcdyuuO0iJ7MS4j4VCi3quSjwLJF2KowHWhGM83OWcWWGrNBhhclwnHqZpRRNkqgzz2fjFS33GDdkGNevlD7HPXJFvpacnjXRh5416XBX+pDZ6VOnw78a103QBmQYo8hMWwfcNPZy9NEfS4nOjlZLf8ISCE7PozByvLTAjFShgXE6so6uZaey76MAvJFHWMOWHYewmqD9PF9hNq5rZcCpN88kJDNWWvHsMwV1UJkctP+hjz0U6lxSb4wEIUY+51/ardAvz0cY7AovsToqXZ0xA8WhqWwc2/PP//gZFMRttz/qT8msFNunHGo3qwIMgdplZSaYpBAWp/1tnnF2lRltlsxwHm1WZ49//vHwwg/Xcn/e7IxXtHrmp/phTEuJ6/fpz3y6yCB2GZv0tw2HU2/6TjalRM9SdNWzlA5rbFK3NWsuPcKZhMy4ljapTtizEydOLJ69tOKlHiqTevF9+xIlaMJ9Q+F7FZamsZejj3G/VPA0eSsEBtyuXbuqRw4/sixDM13BCTFJ6eNnD46z1GDCwM+T7OTbKcfT5DlOAlYNzKTdyTorEUURWIm7kx0OX9GuEHxF6ziOMwy5Fa07WsdxHMfpgIeOHcdxHGeKuKN1HMdxnAFxR+s4juM4A+KO1nEcx3EGxB1tDXZjiDY/8nfK4Dd7nkDbWY5gL+xGFsJtypUgk5UiixXraPn9ZNMuJOxYUrdn6EonJbOVytCTBgwRxrlklyBndlmpNsUn1ZfwFa3jzCgYJzbS+MIXvtB6L1lnOrDl53LdGN8Zn86/o2WmzT6bghkbs7e6DRKYnbOnK+eZ6dy79d7q8GcPV9veuy1k/yeDhXbn0XdBaZ/I9KCdSyh/9+7d4TrQfYE6YZi4XtfqPPdlq7G5ubnwuajL7k9og/2IlUWDlRzZcuyeznWfpYjrDWzyfejgoSCnVLu0hyh10mbqViaqizanZ+/cuO7k60Q2XG/vC3FfquwSmaXqDXHZdfKug3rvvn939cTxJ8IG5JRvry1pF7okedlz1Om2+dtCwnBSDB47diwkNGffY/SQfY9JRE3ZJJ6g/dJRzsX9CPG9u0D92M/3U3/zqep9731f2KM5Jy+wMpFuxLoc90fcX3xfYyfuq9zYzBHraV1/6py1CehYU3+U7uiValfq3pCSmR0jKd2O+wH4jOQP9l51n6UorRtYu8B1TbZSY5r9nWO7az+rI7YHwo4PyQLa2rNZY9Df0dJJKDypl5TmyA7WHGQ62bFzR0gmzsbSbNCuhNhAx9MRCrkoCwsHA44NqTnHtWzITX0EHadr6TzO0/l0MDNOPmMgKTXVtvdsyxoxFB6HajOikN2EetssOCnI8MLG6NwTuaF4bH1GvUrahUwYFJy3MgEywLAJO+doF6shlNnCYNT1J0+erO58x53hc2SzYeOG8DkH8lFmjZzMcvVmoFOW9KRtSjccIXqGnnA98ouzFDW1i/YjB9WZdGJsvE67gDygGG6umZ+frw4+fPCy5NP0LXXft29fKAPIskK7aT9tWVhYCG2m/D5XMxhA9O0bX/9G+LuvrDG0/Y6339E4buk3+k9tol/pX+kZNI3NHHwH4yk95bBjb+u7t1ZHjhwJn1t5C9sf1C+2GSly7UrdOyczjZG2ug3YDtohnaM+2Bj6vtTJNtlh6q3EKXxO20kAYO2CtZWUgYwYs/QJYw09FNJBm4+7jtLxwb272LOlwtiOFmEgFAxXF8MiJ6NOtdkjMOpKWowyYgBZSaCQZNtRdhKuZdBYhbDXohQovzL7d4GMLdYQc0/qXSIDlB4ll1NW1hi1uaRdzOo0iKxMKBtFJJMGMEBxIHGatPh6ruE899r7wN7wObSRWa7eOD3+7kNPwNZb1LXrXe96VzAayEEGizqSek0GAz1Ryjzq+Py3L88Ggwxw8LSJMjB+moUPCf25du3a0Bbd1+pBV8jk1FQen7Nioc0Q6zw0jc0cOEWcivQ0Zv+D+0f9XCdv2x8csc1IkWtX7t4pmXWBe1qHRn2oF/XLkbPDcVpI2o4MrF2wfYlN4vtqN1mi0EP0Eagj40Qy7EpXe7ZUGNvRIgwGjPIgjsP58+cvmxkRFpDQwc7oUKKdO3aGDkYJWIko/ReHwh5Dw/3Pnj0bFI4Ov/HGG4MylqD8mnZAIUMUDLq0C4dI+JOZo661oSShewEhGpsYXi/ecITVQmFu1Wn0B3Kzhr2uXd/57neCYWbG3Cexkx8CJgLkF8bwAe2zBq8L6DDOiryl9JVN50a7aB+6k9KFprGZA6fIGFAO3xhWUry127celbQrde+UzPqA/pUTwT4899xzRfIsscOsCtVXpWjyojzX6KOcX8kEoCul9mypMLajrUvKPEmYhSkcqGNS8XsNCp7ngYxhDpQdpSdcguKQMSNe6XVpFxMXFNNeax1pCkIyrLZ1Pf9SXimT7o+UsbawCrGrEhmmLoxjuNqCseXZlCYvynPaV/gYnSOMRz+hgzxPs46DxwS2L/sKiaccAvcnzMnqTPclnNgnTe0quXdOZl1gwcFqDpvC5N1OHFOU2OF4YignmkL9hJ4rmoLuofslE4A+6GLPZo2xHa06QM/x6rBGDkOuB95dQSkxlvbZTVtY5VCGDYeVojDMb9z1G+ElndKOZ8bMqsQqj13Bd2mXZp7xs8s2WOdFOfEqpklmuXpznWbrMmjoxjhwPTpnV1RNYBAIydnnPnEorQ30HysaawRPPn8ytKXJAXJffhJV99vKJrgG4xg7BcJsioaUIIPKM7zUytA6v5Jx3YUSHVd9JO8+KG1X6b1TE4ZxQFdZxbJqO3fuXPGkJtcudJWVoZ5j8534cYqFfqF/6CfBCha7xTPq0uidyI2PJvqwZ7NEp5ehcBLM7HAcWt7rYTWKw7MAhWpwuBiKPqBs3upDYXRfDr18UwKKTN1ZKXCtQkEyjHyGcdLqk7CqkHKjQFYhc3BPws5WXhxWZuO2izrxhiIG2l5b+vIAg4kBphUUIdd4Rdsks1y99eyWsvfs2RP0om00RHqE7KiDnaCkYFXNLFztoo68vVtnZOqgj9Ve/o1zdsZ63sahNqFndLFuYTSJOqQcBdA2XupRmJOJho260C98rkMvmtEWqBvXff1+uk5XrB5xX8mSCdmJEycWr+xOql25e+dkxjjjc0UeuEcbmwL0L28Gf+XZryx+UkbKDjNmecuX+vK5xo/VYRs5oV/iN6b5P3bLPsoohWvHGR9d7dms4WnyxoQOZ/LQJjyKgvGTpgMHDowUmc8Y1Aza0lnsSgIjxVuqzMCtcZgEGEnP4etMijr7MDRMIJiI5X5GpJ90lU5wVxqeJm8AGBDM/NqGUXDMcchUoUBCLI7jrEyYUN59993FL0FNEpwxkZRJvAS1XHFH2wIcLKEPwkOEQ9qucliR8czQhnjqQjWO46wMFFYmdMsjjllaMSpcHofJnfZ46NhxHMdxOuChY8dxHMeZIu5oHcdxHGdA3NE6juM4zoC4o3Ucx3GcAVnRjpbfSfKj8j5/DE0Z8Q/R26K3m7uWM6vQPk8GvbJhnDDmeLN1UvQxNqdRb2fp09nRorh9OKg6hiwbbMq6eDvEFO4oHDGkLrietcdl5swiK3ZFy+/X2N6rdPPuScLvc9m8fFJJEhxn0jCpZXI76d2+urJU6+1Ml7F/R8tKs26jcvYzloNgVmmz7JMNQ6tGVqvsNqLNGpiJbt+xPWTPgFzZOeL6sUG7HRyqGxtPlA6auD2C5O3sJ4qD5L5KpKAkCvbe2lKQ/UUhbhNy0XVWXqDt0o4ePRqSVLMvahuZxPUn447deo3y2ZNUqN51soo/i8uuq7st+8KFC0UbdSCv3ffvDskb2Did8u21kidbNLLLFrKz/QFWpvYcdbpt/raQWJ6N148dOxayp5AjGLmQ6YfE4JTNj/aRt2TGuZwuQE4P6yjRM2hqVw7pkfqe+8VbTabqndPhFLZtcZ1zfZ2iRGZdxmaq3tB1bMr+cR3oWj6v25ZR9/vEJz5RvX/7+8eSmdMfg/2OVjM7FAKjqvCrFAulxUixgTWfsxsSuyChIECiYTaWJ3zLd9l+DCdLubmyc3AP7sU9uY7BhKFEaTl4/sk5lFKbXWsD8BQo7rb3bKs++YlPVgsLC6Py4xRiDGL2BeUc9WdA0EbY9eFdYQcYzpFWjlU1BkDQRs7R9jowAtR53759oR5MVmhTCcha/cFhU07R9g0bN4zOITNlBKHdNjE1kC+SxANsfJ/ra+pHWdSX8/zLtaXgCLU7DddTlzirBzKRzE+ePBmSzQOyRcZK4YeOsbe0+po8ujhSrpmfn68OPnzwsmTgJFqg7sibMoAMJyW6QLs3bdo0OseRc7JQUnauXV3I1TunwynUNsqOk1aA7WvKxkaQcSnH0GMzV28Yd2zSZ/QdCSu4N/fgWu6trVkZb02MKzNncgwWOsZQvfjSi6PMLSgqhljGGgNPFhXSL7GlIei7XWDQMHi4F/cEjASGlHsz6Bh8KDMzPxwKys0g0ve7gpPUai5k5HjVcLMCYkAxeA8dOhTOIQOMvFLIlcBsWtuhkUmDQaVZeglN96K8vQ/sXfzrUjoznKEGOPs628TjyFL7sub6GqfH39bgtQUjpOuRKXK07Yhlzvl3vetdweEjY00oqCMyU9ouVqhKmUcdn//28+H/AhlI3pRB1qY28ibVYF85ZAV9kGtXV5rq3YcO51BfjyPvHLM4NuPUjVxPpIh740RJmwc4bT1/vuHGG8Kk4PTpS+n6hpSZ053BHC0dzWpB6Zc44nAwCvWP/+8fq1tuuSWk9ZLR6IO+80X2AU6LECVOXjKx4dQSCGsqVRXyYlVaskoCogigPtGKUxCKVL2oo81Hyz1Jk4XxxfDY5NQlfd03rDQxkEJ1AeSBXL7z3e8ER8kKpk9iJ98Ehg8DqKhJX6nmYIh2iVS9+9DhWWTaYxOnWWf/cKT0NWPs5k03h3R1mvwO1f9O/wz6MhSrBYW2dNjwLzM0kgnzbKyvsJdgxicwEhjHWYCwE4PZysSGcIdEg597Etoi3CRnS5iKcJXqxr82RMa1zJRZpSqsKqMCub7uG1YASlKfgmxJdnaPc8ZJd6HJKNaBoZU8uI5ngH042yHaZUnVe5o6PCTTbFc8ebP2C4e68Y0bw2SWCSUOl76fxcWEU09nR4sS1IVXCD0y8HmeVQffV1qo/Q/ur33u1lR2CjkEQmty3O985ztDXfpK88RzEwxd2zCdVoVxO6cBbSDUZbHOizraFS0wyGn3/K/Mh5cvZIByfW37kT5hUhWnCyyF63lmSh/nDCARE/TKPoeLw3RtYGJIMnW7em6jC21XIE1l99Eu+gvnzPU8X4/72mLrPUs6XMdSHJvoE6tp7BSg4/GjgVWrVlUvvPBCGGs8Z8Yxt9UnZ3p0drR6LqewIeFHwBjw5hsKo1AMBysoBjczZND1PANcv3796HpoKjsHz2B43sbslOv0ogB16gPK4RmKQmu8XFXy0gODhjc9GSSSB4deuGCAaQMNBhPhV3u+C7ZsDmSDjBTaYhKC8ZWsCVfZFS0QUuTzm2++OQx4keprsP24Z8+eIDucQhska9Vbz9lysKpmRaZ2UUfeDcg5aYHR5h0CruVfQqo2HJjSBfqNz3S0vXeq7C7tov44amTJ9c88+8xlfZ2qd06Hc6ATfJ97r1mzJsi0dPyUMNTYHLLejCveYsZO6R52bLJy3bx5c/Wtb34rtI8xyFhlUuEsDTxNnjPTaFLG7N46uEnA5CT+2YvjOE6Mp8lzHMdxnCnijtZxHMdxBsRDx47jOI7TAQ8dO47jOM4UcUfrOI7jOAPijtZxHMdxBsQdreM4juMMSK+Olg0l+thcYbmjzSP63PvWcRzHmU18RdtAl0kDu8i4E3Ucx3HAHe0UYBs10vIth43YHcdxnDSdfker7fFIeCxIpqx9aNkHdPuO7dXc3Fz4m1yQNqNLfD35Ydkzl43t4233WF2SsYLr+f911103WjEeP368uv322y8rn1Ul+50Cm+ezl6i20dNKlfLYUxjIS8u9OFeX4q2pbNC1cXuF2oWDteXH8oCUzFL1dhzHcabDoL+j3fXhXWFjc6WUwikInkOSpYVN2DnHRtmkYZOzkJO117dJvn7TTTcFJ8Pm9G/a/KaQNECJyXFWZHghFRzlUoc4DR/OjuwXnGdyoEwoTBL4jLbwueomZ0cZGzZuGH1OHbgXn+PISSrPZzZtnG2XyqfsmJzMoKnejuM4zmwytqPFmeHYDh06tPjJ5cRpu3A0ZNVQujSlrmu6PsfJkydDHltg5cuqUZAzlewXWsFSB+piU2fhSLXyJk3V3FVzlyUSb4J27H1g7+Jfl1LEkU1DyZi7kJMZjFtvx3EcZzoM+oyW1WrTM0gSG+NUSpJ3t4XQqlLMcZAKzIa3u8KLUiqbVWcql2dbUjJzHMdxlh6DOlpyO9qwJs5VkGNxSGzYV0cfzzIJ4xLOxcFSJv/GeVu7kJKZ4ziOs/QY29GSdJik2ArH4oD0gg4Q1lzz+jUhRAw8fySBNGFeVmyEXAkdv+/97wvn65CT4eWjuheUmuDet956awhvjwvPQW3I1mJX4tu3b79iRcu1tO0tb3nL4idl5GRWAm0mIbX/vMhxHGc2GNvR6vkhb98SQiVca1/w4fkob/re9Zt3jUKsPDfVqpLreRMXR6IwLJs44FxwKkeOHAnOks954efLX/5yuK4E7sELRfd94L4ryi7lU3/9qfAvYWeuJ1wMjz76aHCi+pzns/GKlrbTVt1f98bx4QD5jIkDExNbdk5mjuM4ztLD0+Q5juM4Tgc8TZ7jOI7jTBF3tI7jOI4zIO5oHcdxHGdA3NE6juM4zoC4o3Ucx3GcAXFH6ziO4zgD4o7WcRzHcQbEHa3jOI7jDEijo33Na15T/ehHtXtZOI7jOI7zKvhJ/GWKRkdL4vFXXn558S/HcRzHcWLwk/jLFI2O9nVXX1u9+OLF6uWXXvKVreM4juMY8Iv4R/wk/jJF417H8Morr1Q/vHCuevlVj+3O1nEcx3EuQbiYlSxO9rWvfe3ip/UkHa3jOI7jON3wt44dx3EcZ0Dc0TqO4zjOgLijdRzHcZzBqKr/D09DjOggoJhZAAAAAElFTkSuQmCC;movable=1;resizable=1;rotatable=1;deletable=1;editable=1;locked=0;connectable=1;" parent="76U49vm6gXJ6I5cItMZf-57" vertex="1">
          <mxGeometry x="58.6" y="20" width="252.8" height="120" as="geometry" />
        </mxCell>
        <mxCell id="76U49vm6gXJ6I5cItMZf-58" value="OUTLINE" style="swimlane;horizontal=0;whiteSpace=wrap;html=1;movable=0;resizable=0;rotatable=0;deletable=0;editable=0;locked=1;connectable=0;" parent="1" vertex="1">
          <mxGeometry x="60" y="260" width="350" height="330" as="geometry">
            <mxRectangle x="60" y="280" width="40" height="70" as="alternateBounds" />
          </mxGeometry>
        </mxCell>
        <mxCell id="76U49vm6gXJ6I5cItMZf-50" value="" style="rounded=0;whiteSpace=wrap;html=1;fillColor=#17131C;movable=1;resizable=1;rotatable=1;deletable=1;editable=1;locked=0;connectable=1;" parent="76U49vm6gXJ6I5cItMZf-58" vertex="1">
          <mxGeometry x="20" width="330" height="330" as="geometry" />
        </mxCell>
        <mxCell id="JUWfAFHcYzTZ3b7j192V-12" value="HOME" style="rounded=0;whiteSpace=wrap;html=1;fillColor=#3F354D;" parent="76U49vm6gXJ6I5cItMZf-58" vertex="1">
          <mxGeometry x="75" y="35" width="80" height="40" as="geometry" />
        </mxCell>
        <mxCell id="JUWfAFHcYzTZ3b7j192V-14" value="Gen Prompt" style="rounded=1;whiteSpace=wrap;html=1;fillColor=#233B37;" parent="76U49vm6gXJ6I5cItMZf-58" vertex="1">
          <mxGeometry x="235" y="45" width="80" height="20" as="geometry" />
        </mxCell>
        <mxCell id="JUWfAFHcYzTZ3b7j192V-29" style="edgeStyle=orthogonalEdgeStyle;rounded=0;orthogonalLoop=1;jettySize=auto;html=1;exitX=1;exitY=0.5;exitDx=0;exitDy=0;entryX=0;entryY=0.5;entryDx=0;entryDy=0;" parent="76U49vm6gXJ6I5cItMZf-58" source="JUWfAFHcYzTZ3b7j192V-12" target="JUWfAFHcYzTZ3b7j192V-14" edge="1">
          <mxGeometry relative="1" as="geometry" />
        </mxCell>
        <mxCell id="JUWfAFHcYzTZ3b7j192V-16" value="render current random prompt" style="rounded=0;whiteSpace=wrap;html=1;fillColor=#1E2836;" parent="76U49vm6gXJ6I5cItMZf-58" vertex="1">
          <mxGeometry x="55" y="155" width="120" height="50" as="geometry" />
        </mxCell>
        <mxCell id="JUWfAFHcYzTZ3b7j192V-20" value="save" style="rounded=1;whiteSpace=wrap;html=1;fillColor=#233B37;" parent="76U49vm6gXJ6I5cItMZf-58" vertex="1">
          <mxGeometry x="240" y="155" width="80" height="20" as="geometry" />
        </mxCell>
        <mxCell id="JUWfAFHcYzTZ3b7j192V-27" style="edgeStyle=orthogonalEdgeStyle;rounded=0;orthogonalLoop=1;jettySize=auto;html=1;exitX=1;exitY=0.5;exitDx=0;exitDy=0;entryX=0;entryY=0.5;entryDx=0;entryDy=0;" parent="76U49vm6gXJ6I5cItMZf-58" source="JUWfAFHcYzTZ3b7j192V-16" target="JUWfAFHcYzTZ3b7j192V-20" edge="1">
          <mxGeometry relative="1" as="geometry" />
        </mxCell>
        <mxCell id="JUWfAFHcYzTZ3b7j192V-21" value="redo" style="rounded=1;whiteSpace=wrap;html=1;fillColor=#233B37;" parent="76U49vm6gXJ6I5cItMZf-58" vertex="1">
          <mxGeometry x="240" y="195" width="80" height="20" as="geometry" />
        </mxCell>
        <mxCell id="JUWfAFHcYzTZ3b7j192V-28" style="edgeStyle=orthogonalEdgeStyle;rounded=0;orthogonalLoop=1;jettySize=auto;html=1;exitX=1;exitY=0.5;exitDx=0;exitDy=0;entryX=0;entryY=0.5;entryDx=0;entryDy=0;" parent="76U49vm6gXJ6I5cItMZf-58" source="JUWfAFHcYzTZ3b7j192V-16" target="JUWfAFHcYzTZ3b7j192V-21" edge="1">
          <mxGeometry relative="1" as="geometry" />
        </mxCell>
        <mxCell id="JUWfAFHcYzTZ3b7j192V-30" value="render saved&lt;br&gt;prompts" style="shape=document;whiteSpace=wrap;html=1;boundedLbl=1;fillColor=#1E2836;" parent="76U49vm6gXJ6I5cItMZf-58" vertex="1">
          <mxGeometry x="55" y="205" width="120" height="100" as="geometry" />
        </mxCell>
        <mxCell id="JUWfAFHcYzTZ3b7j192V-31" value="" style="shape=link;html=1;rounded=0;exitX=0.5;exitY=1;exitDx=0;exitDy=0;entryX=0.5;entryY=0;entryDx=0;entryDy=0;" parent="76U49vm6gXJ6I5cItMZf-58" source="JUWfAFHcYzTZ3b7j192V-12" target="76U49vm6gXJ6I5cItMZf-16" edge="1">
          <mxGeometry width="100" relative="1" as="geometry">
            <mxPoint x="95" y="85" as="sourcePoint" />
            <mxPoint x="135" y="95" as="targetPoint" />
          </mxGeometry>
        </mxCell>
        <mxCell id="JUWfAFHcYzTZ3b7j192V-32" value="copy" style="rounded=1;whiteSpace=wrap;html=1;fillColor=#233B37;" parent="76U49vm6gXJ6I5cItMZf-58" vertex="1">
          <mxGeometry x="240" y="245" width="80" height="20" as="geometry" />
        </mxCell>
        <mxCell id="JUWfAFHcYzTZ3b7j192V-33" style="edgeStyle=orthogonalEdgeStyle;rounded=0;orthogonalLoop=1;jettySize=auto;html=1;exitX=1;exitY=0.5;exitDx=0;exitDy=0;entryX=0;entryY=0.5;entryDx=0;entryDy=0;" parent="76U49vm6gXJ6I5cItMZf-58" source="JUWfAFHcYzTZ3b7j192V-30" target="JUWfAFHcYzTZ3b7j192V-32" edge="1">
          <mxGeometry relative="1" as="geometry" />
        </mxCell>
        <mxCell id="76U49vm6gXJ6I5cItMZf-16" value="PROMPTS" style="rounded=0;whiteSpace=wrap;html=1;fillColor=#3F354D;" parent="76U49vm6gXJ6I5cItMZf-58" vertex="1">
          <mxGeometry x="55" y="115" width="120" height="40" as="geometry" />
        </mxCell>
        <mxCell id="76U49vm6gXJ6I5cItMZf-60" value="FILE STRUCTURE" style="swimlane;horizontal=0;whiteSpace=wrap;html=1;movable=0;resizable=0;rotatable=0;deletable=0;editable=0;locked=1;connectable=0;startSize=23;" parent="1" vertex="1">
          <mxGeometry x="60" y="610" width="350" height="160" as="geometry">
            <mxRectangle x="60" y="80" width="40" height="70" as="alternateBounds" />
          </mxGeometry>
        </mxCell>
        <mxCell id="76U49vm6gXJ6I5cItMZf-52" value="" style="rounded=0;whiteSpace=wrap;html=1;fillColor=#17131C;movable=1;resizable=1;rotatable=1;deletable=1;editable=1;locked=0;connectable=1;" parent="76U49vm6gXJ6I5cItMZf-60" vertex="1">
          <mxGeometry x="20" width="329" height="160" as="geometry" />
        </mxCell>
        <mxCell id="76U49vm6gXJ6I5cItMZf-7" value=".env" style="rounded=0;whiteSpace=wrap;html=1;" parent="76U49vm6gXJ6I5cItMZf-60" vertex="1">
          <mxGeometry x="34" y="10" width="80" height="20" as="geometry" />
        </mxCell>
        <mxCell id="76U49vm6gXJ6I5cItMZf-8" value="comps" style="rounded=0;whiteSpace=wrap;html=1;" parent="76U49vm6gXJ6I5cItMZf-60" vertex="1">
          <mxGeometry x="34" y="50" width="80" height="20" as="geometry" />
        </mxCell>
        <mxCell id="76U49vm6gXJ6I5cItMZf-9" value="pages" style="rounded=0;whiteSpace=wrap;html=1;" parent="76U49vm6gXJ6I5cItMZf-60" vertex="1">
          <mxGeometry x="34" y="90" width="80" height="20" as="geometry" />
        </mxCell>
        <mxCell id="76U49vm6gXJ6I5cItMZf-11" value="utils" style="rounded=0;whiteSpace=wrap;html=1;" parent="76U49vm6gXJ6I5cItMZf-60" vertex="1">
          <mxGeometry x="34" y="130" width="80" height="20" as="geometry" />
        </mxCell>
        <mxCell id="76U49vm6gXJ6I5cItMZf-12" value="source of truth - hold fetch URL" style="text;html=1;strokeColor=none;fillColor=none;align=center;verticalAlign=middle;whiteSpace=wrap;rounded=0;" parent="76U49vm6gXJ6I5cItMZf-60" vertex="1">
          <mxGeometry x="154" width="200" height="40" as="geometry" />
        </mxCell>
        <mxCell id="76U49vm6gXJ6I5cItMZf-13" style="edgeStyle=orthogonalEdgeStyle;rounded=0;orthogonalLoop=1;jettySize=auto;html=1;exitX=1;exitY=0.5;exitDx=0;exitDy=0;entryX=0;entryY=0.5;entryDx=0;entryDy=0;" parent="76U49vm6gXJ6I5cItMZf-60" source="76U49vm6gXJ6I5cItMZf-7" target="76U49vm6gXJ6I5cItMZf-12" edge="1">
          <mxGeometry relative="1" as="geometry" />
        </mxCell>
        <mxCell id="76U49vm6gXJ6I5cItMZf-14" value="HOME, PROMPTS" style="text;html=1;align=center;verticalAlign=middle;resizable=0;points=[];autosize=1;strokeColor=none;fillColor=none;" parent="76U49vm6gXJ6I5cItMZf-60" vertex="1">
          <mxGeometry x="154" y="85" width="130" height="30" as="geometry" />
        </mxCell>
        <mxCell id="76U49vm6gXJ6I5cItMZf-15" style="edgeStyle=orthogonalEdgeStyle;rounded=0;orthogonalLoop=1;jettySize=auto;html=1;exitX=1;exitY=0.5;exitDx=0;exitDy=0;entryX=-0.005;entryY=0.508;entryDx=0;entryDy=0;entryPerimeter=0;" parent="76U49vm6gXJ6I5cItMZf-60" source="76U49vm6gXJ6I5cItMZf-9" target="76U49vm6gXJ6I5cItMZf-14" edge="1">
          <mxGeometry relative="1" as="geometry" />
        </mxCell>
        <mxCell id="76U49vm6gXJ6I5cItMZf-19" value="client - hold fetch functionality" style="text;html=1;align=center;verticalAlign=middle;resizable=0;points=[];autosize=1;strokeColor=none;fillColor=none;" parent="76U49vm6gXJ6I5cItMZf-60" vertex="1">
          <mxGeometry x="154" y="125" width="180" height="30" as="geometry" />
        </mxCell>
        <mxCell id="76U49vm6gXJ6I5cItMZf-20" style="edgeStyle=orthogonalEdgeStyle;rounded=0;orthogonalLoop=1;jettySize=auto;html=1;exitX=1;exitY=0.5;exitDx=0;exitDy=0;entryX=-0.001;entryY=0.476;entryDx=0;entryDy=0;entryPerimeter=0;" parent="76U49vm6gXJ6I5cItMZf-60" source="76U49vm6gXJ6I5cItMZf-11" target="76U49vm6gXJ6I5cItMZf-19" edge="1">
          <mxGeometry relative="1" as="geometry" />
        </mxCell>
        <mxCell id="76U49vm6gXJ6I5cItMZf-21" value="current prompt, saved prompts,&lt;br&gt;save, redo, copy" style="text;html=1;align=center;verticalAlign=middle;resizable=0;points=[];autosize=1;strokeColor=none;fillColor=none;" parent="76U49vm6gXJ6I5cItMZf-60" vertex="1">
          <mxGeometry x="154" y="40" width="190" height="40" as="geometry" />
        </mxCell>
        <mxCell id="76U49vm6gXJ6I5cItMZf-22" style="edgeStyle=orthogonalEdgeStyle;rounded=0;orthogonalLoop=1;jettySize=auto;html=1;exitX=1;exitY=0.5;exitDx=0;exitDy=0;entryX=-0.004;entryY=0.476;entryDx=0;entryDy=0;entryPerimeter=0;" parent="76U49vm6gXJ6I5cItMZf-60" source="76U49vm6gXJ6I5cItMZf-8" target="76U49vm6gXJ6I5cItMZf-21" edge="1">
          <mxGeometry relative="1" as="geometry" />
        </mxCell>
        <mxCell id="76U49vm6gXJ6I5cItMZf-62" value="TO DO" style="swimlane;whiteSpace=wrap;html=1;movable=1;resizable=1;rotatable=1;deletable=1;editable=1;locked=0;connectable=1;" parent="1" vertex="1">
          <mxGeometry x="430" y="260" width="200" height="510" as="geometry" />
        </mxCell>
        <mxCell id="JUWfAFHcYzTZ3b7j192V-4" value="" style="rounded=0;whiteSpace=wrap;html=1;movable=0;resizable=0;rotatable=0;deletable=0;editable=0;locked=1;connectable=0;fillColor=#17131C;" parent="76U49vm6gXJ6I5cItMZf-62" vertex="1">
          <mxGeometry y="20" width="200" height="490" as="geometry" />
        </mxCell>
        <mxCell id="JUWfAFHcYzTZ3b7j192V-7" value="outline based on brief" style="text;html=1;align=center;verticalAlign=middle;resizable=1;points=[];autosize=1;strokeColor=none;fillColor=none;movable=1;rotatable=1;deletable=1;editable=1;locked=0;connectable=1;" parent="76U49vm6gXJ6I5cItMZf-62" vertex="1">
          <mxGeometry x="10" y="50" width="140" height="30" as="geometry" />
        </mxCell>
        <mxCell id="JUWfAFHcYzTZ3b7j192V-8" value="" style="whiteSpace=wrap;html=1;aspect=fixed;fillColor=#B9E0A5;movable=1;resizable=1;rotatable=1;deletable=1;editable=1;locked=0;connectable=1;" parent="76U49vm6gXJ6I5cItMZf-62" vertex="1">
          <mxGeometry x="5" y="60" width="10" height="10" as="geometry" />
        </mxCell>
        <mxCell id="JUWfAFHcYzTZ3b7j192V-9" value="create react app &amp;amp; github repo" style="text;html=1;align=center;verticalAlign=middle;resizable=1;points=[];autosize=1;strokeColor=none;fillColor=none;movable=1;rotatable=1;deletable=1;editable=1;locked=0;connectable=1;" parent="76U49vm6gXJ6I5cItMZf-62" vertex="1">
          <mxGeometry x="15" y="70" width="180" height="30" as="geometry" />
        </mxCell>
        <mxCell id="JUWfAFHcYzTZ3b7j192V-10" value="" style="whiteSpace=wrap;html=1;aspect=fixed;fillColor=#B9E0A5;movable=1;resizable=1;rotatable=1;deletable=1;editable=1;locked=0;connectable=1;" parent="76U49vm6gXJ6I5cItMZf-62" vertex="1">
          <mxGeometry x="5" y="80" width="10" height="10" as="geometry" />
        </mxCell>
        <mxCell id="76U49vm6gXJ6I5cItMZf-2" value="plan file structure" style="text;html=1;align=center;verticalAlign=middle;resizable=1;points=[];autosize=1;strokeColor=none;fillColor=none;movable=1;rotatable=1;deletable=1;editable=1;locked=0;connectable=1;" parent="76U49vm6gXJ6I5cItMZf-62" vertex="1">
          <mxGeometry x="15" y="90" width="110" height="30" as="geometry" />
        </mxCell>
        <mxCell id="76U49vm6gXJ6I5cItMZf-3" value="" style="whiteSpace=wrap;html=1;aspect=fixed;fillColor=#B9E0A5;movable=1;resizable=1;rotatable=1;deletable=1;editable=1;locked=0;connectable=1;" parent="76U49vm6gXJ6I5cItMZf-62" vertex="1">
          <mxGeometry x="5" y="100" width="10" height="10" as="geometry" />
        </mxCell>
        <mxCell id="76U49vm6gXJ6I5cItMZf-23" value="convert .csv to json" style="text;html=1;align=center;verticalAlign=middle;resizable=1;points=[];autosize=1;strokeColor=none;fillColor=none;movable=1;rotatable=1;deletable=1;editable=1;locked=0;connectable=1;" parent="76U49vm6gXJ6I5cItMZf-62" vertex="1">
          <mxGeometry x="10" y="110" width="130" height="30" as="geometry" />
        </mxCell>
        <mxCell id="76U49vm6gXJ6I5cItMZf-24" value="" style="whiteSpace=wrap;html=1;aspect=fixed;fillColor=#B9E0A5;movable=1;resizable=1;rotatable=1;deletable=1;editable=1;locked=0;connectable=1;" parent="76U49vm6gXJ6I5cItMZf-62" vertex="1">
          <mxGeometry x="5" y="120" width="10" height="10" as="geometry" />
        </mxCell>
        <mxCell id="76U49vm6gXJ6I5cItMZf-25" value="button to generate prompt" style="text;html=1;align=center;verticalAlign=middle;resizable=1;points=[];autosize=1;strokeColor=none;fillColor=none;movable=1;rotatable=1;deletable=1;editable=1;locked=0;connectable=1;" parent="76U49vm6gXJ6I5cItMZf-62" vertex="1">
          <mxGeometry x="15" y="130" width="160" height="30" as="geometry" />
        </mxCell>
        <mxCell id="76U49vm6gXJ6I5cItMZf-26" value="" style="whiteSpace=wrap;html=1;aspect=fixed;fillColor=#B9E0A5;movable=1;resizable=1;rotatable=1;deletable=1;editable=1;locked=0;connectable=1;" parent="76U49vm6gXJ6I5cItMZf-62" vertex="1">
          <mxGeometry x="5" y="140" width="10" height="10" as="geometry" />
        </mxCell>
        <mxCell id="76U49vm6gXJ6I5cItMZf-27" value="prompt randomiser - find in js db" style="text;html=1;align=center;verticalAlign=middle;resizable=1;points=[];autosize=1;strokeColor=none;fillColor=none;movable=1;rotatable=1;deletable=1;editable=1;locked=0;connectable=1;" parent="76U49vm6gXJ6I5cItMZf-62" vertex="1">
          <mxGeometry x="10" y="150" width="200" height="30" as="geometry" />
        </mxCell>
        <mxCell id="76U49vm6gXJ6I5cItMZf-28" value="" style="whiteSpace=wrap;html=1;aspect=fixed;fillColor=#B9E0A5;movable=1;resizable=1;rotatable=1;deletable=1;editable=1;locked=0;connectable=1;" parent="76U49vm6gXJ6I5cItMZf-62" vertex="1">
          <mxGeometry x="5" y="160" width="10" height="10" as="geometry" />
        </mxCell>
        <mxCell id="76U49vm6gXJ6I5cItMZf-29" value="button to generate genre" style="text;html=1;align=center;verticalAlign=middle;resizable=1;points=[];autosize=1;strokeColor=none;fillColor=none;movable=1;rotatable=1;deletable=1;editable=1;locked=0;connectable=1;" parent="76U49vm6gXJ6I5cItMZf-62" vertex="1">
          <mxGeometry x="15" y="170" width="150" height="30" as="geometry" />
        </mxCell>
        <mxCell id="76U49vm6gXJ6I5cItMZf-30" value="" style="whiteSpace=wrap;html=1;aspect=fixed;fillColor=#B9E0A5;movable=1;resizable=1;rotatable=1;deletable=1;editable=1;locked=0;connectable=1;" parent="76U49vm6gXJ6I5cItMZf-62" vertex="1">
          <mxGeometry x="5" y="180" width="10" height="10" as="geometry" />
        </mxCell>
        <mxCell id="76U49vm6gXJ6I5cItMZf-39" value="genre randomiser - find in js db" style="text;html=1;align=center;verticalAlign=middle;resizable=1;points=[];autosize=1;strokeColor=none;fillColor=none;movable=1;rotatable=1;deletable=1;editable=1;locked=0;connectable=1;" parent="76U49vm6gXJ6I5cItMZf-62" vertex="1">
          <mxGeometry x="10" y="190" width="190" height="30" as="geometry" />
        </mxCell>
        <mxCell id="76U49vm6gXJ6I5cItMZf-40" value="" style="whiteSpace=wrap;html=1;aspect=fixed;fillColor=#B9E0A5;movable=1;resizable=1;rotatable=1;deletable=1;editable=1;locked=0;connectable=1;" parent="76U49vm6gXJ6I5cItMZf-62" vertex="1">
          <mxGeometry x="5" y="200" width="10" height="10" as="geometry" />
        </mxCell>
        <mxCell id="76U49vm6gXJ6I5cItMZf-41" value="styling to mimic old crt monitor" style="text;html=1;align=center;verticalAlign=middle;resizable=1;points=[];autosize=1;strokeColor=none;fillColor=none;movable=1;rotatable=1;deletable=1;editable=1;locked=0;connectable=1;" parent="76U49vm6gXJ6I5cItMZf-62" vertex="1">
          <mxGeometry x="15" y="210" width="180" height="30" as="geometry" />
        </mxCell>
        <mxCell id="76U49vm6gXJ6I5cItMZf-42" value="" style="whiteSpace=wrap;html=1;aspect=fixed;fillColor=#B9E0A5;movable=1;resizable=1;rotatable=1;deletable=1;editable=1;locked=0;connectable=1;" parent="76U49vm6gXJ6I5cItMZf-62" vertex="1">
          <mxGeometry x="5" y="220" width="10" height="10" as="geometry" />
        </mxCell>
        <mxCell id="76U49vm6gXJ6I5cItMZf-43" value="animate the text rendering&lt;br&gt;so it appears as typing" style="text;html=1;align=center;verticalAlign=middle;resizable=1;points=[];autosize=1;strokeColor=none;fillColor=none;movable=1;rotatable=1;deletable=1;editable=1;locked=0;connectable=1;" parent="76U49vm6gXJ6I5cItMZf-62" vertex="1">
          <mxGeometry x="15" y="230" width="160" height="40" as="geometry" />
        </mxCell>
        <mxCell id="76U49vm6gXJ6I5cItMZf-44" value="" style="whiteSpace=wrap;html=1;aspect=fixed;fillColor=#FFB570;movable=1;resizable=1;rotatable=1;deletable=1;editable=1;locked=0;connectable=1;" parent="76U49vm6gXJ6I5cItMZf-62" vertex="1">
          <mxGeometry x="5" y="240" width="10" height="10" as="geometry" />
        </mxCell>
        <mxCell id="76U49vm6gXJ6I5cItMZf-45" value="..." style="text;html=1;align=center;verticalAlign=middle;resizable=1;points=[];autosize=1;strokeColor=none;fillColor=none;movable=1;rotatable=1;deletable=1;editable=1;locked=0;connectable=1;" parent="76U49vm6gXJ6I5cItMZf-62" vertex="1">
          <mxGeometry x="30" y="260" width="30" height="30" as="geometry" />
        </mxCell>
        <mxCell id="76U49vm6gXJ6I5cItMZf-46" value="" style="whiteSpace=wrap;html=1;aspect=fixed;fillColor=none;movable=1;resizable=1;rotatable=1;deletable=1;editable=1;locked=0;connectable=1;" parent="76U49vm6gXJ6I5cItMZf-62" vertex="1">
          <mxGeometry x="5" y="270" width="10" height="10" as="geometry" />
        </mxCell>
        <mxCell id="2VOaOsJDgr1nr4XRCs_4-1" value="" style="whiteSpace=wrap;html=1;aspect=fixed;fillColor=none;movable=1;resizable=1;rotatable=1;deletable=1;editable=1;locked=0;connectable=1;" vertex="1" parent="76U49vm6gXJ6I5cItMZf-62">
          <mxGeometry x="5" y="290" width="10" height="10" as="geometry" />
        </mxCell>
        <mxCell id="2VOaOsJDgr1nr4XRCs_4-2" value="..." style="text;html=1;align=center;verticalAlign=middle;resizable=1;points=[];autosize=1;strokeColor=none;fillColor=none;movable=1;rotatable=1;deletable=1;editable=1;locked=0;connectable=1;" vertex="1" parent="76U49vm6gXJ6I5cItMZf-62">
          <mxGeometry x="30" y="300" width="30" height="30" as="geometry" />
        </mxCell>
        <mxCell id="2VOaOsJDgr1nr4XRCs_4-3" value="" style="whiteSpace=wrap;html=1;aspect=fixed;fillColor=none;movable=1;resizable=1;rotatable=1;deletable=1;editable=1;locked=0;connectable=1;" vertex="1" parent="76U49vm6gXJ6I5cItMZf-62">
          <mxGeometry x="5" y="310" width="10" height="10" as="geometry" />
        </mxCell>
        <mxCell id="2VOaOsJDgr1nr4XRCs_4-4" value="..." style="text;html=1;align=center;verticalAlign=middle;resizable=1;points=[];autosize=1;strokeColor=none;fillColor=none;movable=1;rotatable=1;deletable=1;editable=1;locked=0;connectable=1;" vertex="1" parent="76U49vm6gXJ6I5cItMZf-62">
          <mxGeometry x="30" y="320" width="30" height="30" as="geometry" />
        </mxCell>
        <mxCell id="2VOaOsJDgr1nr4XRCs_4-5" value="" style="whiteSpace=wrap;html=1;aspect=fixed;fillColor=none;movable=1;resizable=1;rotatable=1;deletable=1;editable=1;locked=0;connectable=1;" vertex="1" parent="76U49vm6gXJ6I5cItMZf-62">
          <mxGeometry x="5" y="330" width="10" height="10" as="geometry" />
        </mxCell>
        <mxCell id="2VOaOsJDgr1nr4XRCs_4-6" value="" style="whiteSpace=wrap;html=1;aspect=fixed;fillColor=none;movable=1;resizable=1;rotatable=1;deletable=1;editable=1;locked=0;connectable=1;" vertex="1" parent="76U49vm6gXJ6I5cItMZf-62">
          <mxGeometry x="5" y="350" width="10" height="10" as="geometry" />
        </mxCell>
        <mxCell id="2VOaOsJDgr1nr4XRCs_4-7" value="..." style="text;html=1;align=center;verticalAlign=middle;resizable=1;points=[];autosize=1;strokeColor=none;fillColor=none;movable=1;rotatable=1;deletable=1;editable=1;locked=0;connectable=1;" vertex="1" parent="76U49vm6gXJ6I5cItMZf-62">
          <mxGeometry x="30" y="360" width="30" height="30" as="geometry" />
        </mxCell>
        <mxCell id="2VOaOsJDgr1nr4XRCs_4-8" value="" style="whiteSpace=wrap;html=1;aspect=fixed;fillColor=none;movable=1;resizable=1;rotatable=1;deletable=1;editable=1;locked=0;connectable=1;" vertex="1" parent="76U49vm6gXJ6I5cItMZf-62">
          <mxGeometry x="5" y="370" width="10" height="10" as="geometry" />
        </mxCell>
        <mxCell id="2VOaOsJDgr1nr4XRCs_4-9" value="..." style="text;html=1;align=center;verticalAlign=middle;resizable=1;points=[];autosize=1;strokeColor=none;fillColor=none;movable=1;rotatable=1;deletable=1;editable=1;locked=0;connectable=1;" vertex="1" parent="76U49vm6gXJ6I5cItMZf-62">
          <mxGeometry x="30" y="380" width="30" height="30" as="geometry" />
        </mxCell>
        <mxCell id="2VOaOsJDgr1nr4XRCs_4-10" value="" style="whiteSpace=wrap;html=1;aspect=fixed;fillColor=none;movable=1;resizable=1;rotatable=1;deletable=1;editable=1;locked=0;connectable=1;" vertex="1" parent="76U49vm6gXJ6I5cItMZf-62">
          <mxGeometry x="5" y="390" width="10" height="10" as="geometry" />
        </mxCell>
        <mxCell id="2VOaOsJDgr1nr4XRCs_4-11" value="..." style="text;html=1;align=center;verticalAlign=middle;resizable=1;points=[];autosize=1;strokeColor=none;fillColor=none;movable=1;rotatable=1;deletable=1;editable=1;locked=0;connectable=1;" vertex="1" parent="76U49vm6gXJ6I5cItMZf-62">
          <mxGeometry x="30" y="280" width="30" height="30" as="geometry" />
        </mxCell>
        <mxCell id="2VOaOsJDgr1nr4XRCs_4-12" value="..." style="text;html=1;align=center;verticalAlign=middle;resizable=1;points=[];autosize=1;strokeColor=none;fillColor=none;movable=1;rotatable=1;deletable=1;editable=1;locked=0;connectable=1;" vertex="1" parent="76U49vm6gXJ6I5cItMZf-62">
          <mxGeometry x="30" y="340" width="30" height="30" as="geometry" />
        </mxCell>
        <mxCell id="76U49vm6gXJ6I5cItMZf-66" value="" style="group;movable=1;resizable=1;rotatable=1;deletable=1;editable=1;locked=0;connectable=1;" parent="1" vertex="1" connectable="0">
          <mxGeometry x="60" y="20" width="570" height="40" as="geometry" />
        </mxCell>
        <mxCell id="76U49vm6gXJ6I5cItMZf-65" value="" style="shape=hexagon;perimeter=hexagonPerimeter2;whiteSpace=wrap;html=1;fixedSize=1;movable=1;resizable=1;rotatable=1;deletable=1;editable=1;locked=0;connectable=1;" parent="76U49vm6gXJ6I5cItMZf-66" vertex="1">
          <mxGeometry width="570" height="40" as="geometry" />
        </mxCell>
        <mxCell id="JUWfAFHcYzTZ3b7j192V-2" value="&lt;h1&gt;&lt;span style=&quot;font-weight: normal;&quot;&gt;&lt;font style=&quot;font-size: 24px;&quot;&gt;FILM PROMPT GENERATOR&lt;/font&gt;&lt;/span&gt;&lt;/h1&gt;" style="text;strokeColor=none;align=center;fillColor=none;html=1;verticalAlign=middle;whiteSpace=wrap;rounded=0;movable=1;resizable=1;rotatable=1;deletable=1;editable=1;locked=0;connectable=1;" parent="76U49vm6gXJ6I5cItMZf-66" vertex="1">
          <mxGeometry x="6.951219512195122" width="556.0975609756097" height="40" as="geometry" />
        </mxCell>
        <mxCell id="326b060xg5jDkw63QMcN-1" value="DEVLOG" style="swimlane;whiteSpace=wrap;html=1;movable=1;resizable=1;rotatable=1;deletable=1;editable=1;locked=0;connectable=1;startSize=30;" parent="1" vertex="1">
          <mxGeometry x="650" y="20" width="450" height="750" as="geometry" />
        </mxCell>
        <mxCell id="326b060xg5jDkw63QMcN-2" value="" style="rounded=0;whiteSpace=wrap;html=1;movable=1;resizable=1;rotatable=1;deletable=1;editable=1;locked=0;connectable=1;" parent="326b060xg5jDkw63QMcN-1" vertex="1">
          <mxGeometry y="30" width="450" height="720" as="geometry" />
        </mxCell>
        <mxCell id="326b060xg5jDkw63QMcN-14" value="Day 2" style="swimlane;horizontal=0;whiteSpace=wrap;html=1;movable=1;resizable=1;rotatable=1;deletable=1;editable=1;locked=0;connectable=1;" parent="326b060xg5jDkw63QMcN-1" vertex="1">
          <mxGeometry y="210" width="450" height="180" as="geometry" />
        </mxCell>
        <mxCell id="326b060xg5jDkw63QMcN-15" value="&lt;b&gt;Achieved: &lt;/b&gt;Styled the page as a whole, including background effects and font to match an old CRT monitor aesthetic. Implemented an additional randomiser for genre&lt;br&gt;&lt;br&gt;&lt;b&gt;Functionality:&lt;/b&gt;&amp;nbsp;Matching functionality for genre button as for prompt (potential to componentise to reduced repeated code, gives ability to add more randomisers easily in the future)" style="text;html=1;strokeColor=none;fillColor=none;align=left;verticalAlign=middle;whiteSpace=wrap;rounded=0;" parent="326b060xg5jDkw63QMcN-14" vertex="1">
          <mxGeometry x="30" y="10" width="410" height="160" as="geometry" />
        </mxCell>
        <mxCell id="326b060xg5jDkw63QMcN-21" value="Day 3" style="swimlane;horizontal=0;whiteSpace=wrap;html=1;movable=1;resizable=1;rotatable=1;deletable=1;editable=1;locked=0;connectable=1;" parent="326b060xg5jDkw63QMcN-1" vertex="1">
          <mxGeometry y="390" width="450" height="180" as="geometry" />
        </mxCell>
        <mxCell id="326b060xg5jDkw63QMcN-22" value="&lt;b&gt;Achieved:&amp;nbsp;&lt;/b&gt;&lt;br&gt;&lt;br&gt;&lt;b&gt;Functionality:&lt;/b&gt;&amp;nbsp;" style="text;html=1;strokeColor=none;fillColor=none;align=left;verticalAlign=middle;whiteSpace=wrap;rounded=0;" parent="326b060xg5jDkw63QMcN-21" vertex="1">
          <mxGeometry x="30" y="10" width="410" height="160" as="geometry" />
        </mxCell>
        <mxCell id="326b060xg5jDkw63QMcN-23" value="Day 4" style="swimlane;horizontal=0;whiteSpace=wrap;html=1;movable=1;resizable=1;rotatable=1;deletable=1;editable=1;locked=0;connectable=1;" parent="326b060xg5jDkw63QMcN-1" vertex="1">
          <mxGeometry y="570" width="450" height="180" as="geometry" />
        </mxCell>
        <mxCell id="326b060xg5jDkw63QMcN-24" value="&lt;b&gt;Achieved:&amp;nbsp;&lt;/b&gt;&lt;br&gt;&lt;br&gt;&lt;b&gt;Functionality:&lt;/b&gt;&amp;nbsp;" style="text;html=1;strokeColor=none;fillColor=none;align=left;verticalAlign=middle;whiteSpace=wrap;rounded=0;" parent="326b060xg5jDkw63QMcN-23" vertex="1">
          <mxGeometry x="30" y="10" width="410" height="160" as="geometry" />
        </mxCell>
        <mxCell id="326b060xg5jDkw63QMcN-4" value="Day 1" style="swimlane;horizontal=0;whiteSpace=wrap;html=1;movable=0;resizable=0;rotatable=0;deletable=0;editable=0;locked=1;connectable=0;" parent="326b060xg5jDkw63QMcN-1" vertex="1">
          <mxGeometry y="30" width="450" height="180" as="geometry" />
        </mxCell>
        <mxCell id="326b060xg5jDkw63QMcN-3" value="&lt;b&gt;Achieved: &lt;/b&gt;Spent most of the morning researching and converting the .csv file into .json. Managed to get the app working locally with .json hosted on local port hard-coded to 4000. gh pages was then set up to host externally, and the data was copied to a .js to enable use of the app without local hosting.&lt;br&gt;&lt;br&gt;&lt;b&gt;Functionality:&lt;/b&gt; Upon button click, random number is generated based on number of prompts stored in database. The matching prompt number is then found, and set to local prompt state. That prompt is then rendered onto the page." style="text;html=1;strokeColor=none;fillColor=none;align=left;verticalAlign=middle;whiteSpace=wrap;rounded=0;" parent="326b060xg5jDkw63QMcN-4" vertex="1">
          <mxGeometry x="30" y="10" width="410" height="160" as="geometry" />
        </mxCell>
      </root>
    </mxGraphModel>
  </diagram>
</mxfile>
